# Tiled2Unity generated file. Do not modify by hand.
# Wavefront file for 'Grassland---Lanes_mesh_0002.obj'

# Vertices (Count = 940)
v -1312 -192 0
v -1344 -192 0
v -1344 -160 0
v -1312 -160 0
v -1504 -192 0
v -1536 -192 0
v -1536 -160 0
v -1504 -160 0
v -1536 -192 0
v -1568 -192 0
v -1568 -160 0
v -1536 -160 0
v -1568 -192 0
v -1600 -192 0
v -1600 -160 0
v -1568 -160 0
v -1440 -224 0
v -1472 -224 0
v -1472 -192 0
v -1440 -192 0
v -1472 -224 0
v -1504 -224 0
v -1504 -192 0
v -1472 -192 0
v -1504 -224 0
v -1536 -224 0
v -1536 -192 0
v -1504 -192 0
v -1536 -224 0
v -1568 -224 0
v -1568 -192 0
v -1536 -192 0
v -1568 -224 0
v -1600 -224 0
v -1600 -192 0
v -1568 -192 0
v -1440 -256 0
v -1472 -256 0
v -1472 -224 0
v -1440 -224 0
v -1472 -256 0
v -1504 -256 0
v -1504 -224 0
v -1472 -224 0
v -1504 -256 0
v -1536 -256 0
v -1536 -224 0
v -1504 -224 0
v -1536 -256 0
v -1568 -256 0
v -1568 -224 0
v -1536 -224 0
v -1568 -256 0
v -1600 -256 0
v -1600 -224 0
v -1568 -224 0
v -832 -288 0
v -864 -288 0
v -864 -256 0
v -832 -256 0
v -864 -288 0
v -896 -288 0
v -896 -256 0
v -864 -256 0
v -896 -288 0
v -928 -288 0
v -928 -256 0
v -896 -256 0
v -928 -288 0
v -960 -288 0
v -960 -256 0
v -928 -256 0
v -960 -288 0
v -992 -288 0
v -992 -256 0
v -960 -256 0
v -992 -288 0
v -1024 -288 0
v -1024 -256 0
v -992 -256 0
v -1024 -288 0
v -1056 -288 0
v -1056 -256 0
v -1024 -256 0
v -1056 -288 0
v -1088 -288 0
v -1088 -256 0
v -1056 -256 0
v -1088 -288 0
v -1120 -288 0
v -1120 -256 0
v -1088 -256 0
v -1120 -288 0
v -1152 -288 0
v -1152 -256 0
v -1120 -256 0
v -1152 -288 0
v -1184 -288 0
v -1184 -256 0
v -1152 -256 0
v -1184 -288 0
v -1216 -288 0
v -1216 -256 0
v -1184 -256 0
v -1216 -288 0
v -1248 -288 0
v -1248 -256 0
v -1216 -256 0
v -1248 -288 0
v -1280 -288 0
v -1280 -256 0
v -1248 -256 0
v -1280 -288 0
v -1312 -288 0
v -1312 -256 0
v -1280 -256 0
v -1312 -288 0
v -1344 -288 0
v -1344 -256 0
v -1312 -256 0
v -1344 -288 0
v -1376 -288 0
v -1376 -256 0
v -1344 -256 0
v -1376 -288 0
v -1408 -288 0
v -1408 -256 0
v -1376 -256 0
v -1408 -288 0
v -1440 -288 0
v -1440 -256 0
v -1408 -256 0
v -1440 -288 0
v -1472 -288 0
v -1472 -256 0
v -1440 -256 0
v -1472 -288 0
v -1504 -288 0
v -1504 -256 0
v -1472 -256 0
v -1504 -288 0
v -1536 -288 0
v -1536 -256 0
v -1504 -256 0
v -1536 -288 0
v -1568 -288 0
v -1568 -256 0
v -1536 -256 0
v -1568 -288 0
v -1600 -288 0
v -1600 -256 0
v -1568 -256 0
v -768 -320 0
v -800 -320 0
v -800 -288 0
v -768 -288 0
v -800 -320 0
v -832 -320 0
v -832 -288 0
v -800 -288 0
v -832 -320 0
v -864 -320 0
v -864 -288 0
v -832 -288 0
v -864 -320 0
v -896 -320 0
v -896 -288 0
v -864 -288 0
v -896 -320 0
v -928 -320 0
v -928 -288 0
v -896 -288 0
v -928 -320 0
v -960 -320 0
v -960 -288 0
v -928 -288 0
v -960 -320 0
v -992 -320 0
v -992 -288 0
v -960 -288 0
v -992 -320 0
v -1024 -320 0
v -1024 -288 0
v -992 -288 0
v -1024 -320 0
v -1056 -320 0
v -1056 -288 0
v -1024 -288 0
v -1056 -320 0
v -1088 -320 0
v -1088 -288 0
v -1056 -288 0
v -1088 -320 0
v -1120 -320 0
v -1120 -288 0
v -1088 -288 0
v -1120 -320 0
v -1152 -320 0
v -1152 -288 0
v -1120 -288 0
v -1152 -320 0
v -1184 -320 0
v -1184 -288 0
v -1152 -288 0
v -1184 -320 0
v -1216 -320 0
v -1216 -288 0
v -1184 -288 0
v -1216 -320 0
v -1248 -320 0
v -1248 -288 0
v -1216 -288 0
v -1248 -320 0
v -1280 -320 0
v -1280 -288 0
v -1248 -288 0
v -1280 -320 0
v -1312 -320 0
v -1312 -288 0
v -1280 -288 0
v -1312 -320 0
v -1344 -320 0
v -1344 -288 0
v -1312 -288 0
v -1344 -320 0
v -1376 -320 0
v -1376 -288 0
v -1344 -288 0
v -1376 -320 0
v -1408 -320 0
v -1408 -288 0
v -1376 -288 0
v -1408 -320 0
v -1440 -320 0
v -1440 -288 0
v -1408 -288 0
v -1440 -320 0
v -1472 -320 0
v -1472 -288 0
v -1440 -288 0
v -1472 -320 0
v -1504 -320 0
v -1504 -288 0
v -1472 -288 0
v -1504 -320 0
v -1536 -320 0
v -1536 -288 0
v -1504 -288 0
v -1536 -320 0
v -1568 -320 0
v -1568 -288 0
v -1536 -288 0
v -1568 -320 0
v -1600 -320 0
v -1600 -288 0
v -1568 -288 0
v -768 -352 0
v -800 -352 0
v -800 -320 0
v -768 -320 0
v -800 -352 0
v -832 -352 0
v -832 -320 0
v -800 -320 0
v -832 -352 0
v -864 -352 0
v -864 -320 0
v -832 -320 0
v -864 -352 0
v -896 -352 0
v -896 -320 0
v -864 -320 0
v -896 -352 0
v -928 -352 0
v -928 -320 0
v -896 -320 0
v -928 -352 0
v -960 -352 0
v -960 -320 0
v -928 -320 0
v -960 -352 0
v -992 -352 0
v -992 -320 0
v -960 -320 0
v -992 -352 0
v -1024 -352 0
v -1024 -320 0
v -992 -320 0
v -1024 -352 0
v -1056 -352 0
v -1056 -320 0
v -1024 -320 0
v -1056 -352 0
v -1088 -352 0
v -1088 -320 0
v -1056 -320 0
v -1088 -352 0
v -1120 -352 0
v -1120 -320 0
v -1088 -320 0
v -1120 -352 0
v -1152 -352 0
v -1152 -320 0
v -1120 -320 0
v -1152 -352 0
v -1184 -352 0
v -1184 -320 0
v -1152 -320 0
v -1184 -352 0
v -1216 -352 0
v -1216 -320 0
v -1184 -320 0
v -1216 -352 0
v -1248 -352 0
v -1248 -320 0
v -1216 -320 0
v -1248 -352 0
v -1280 -352 0
v -1280 -320 0
v -1248 -320 0
v -1280 -352 0
v -1312 -352 0
v -1312 -320 0
v -1280 -320 0
v -1312 -352 0
v -1344 -352 0
v -1344 -320 0
v -1312 -320 0
v -1344 -352 0
v -1376 -352 0
v -1376 -320 0
v -1344 -320 0
v -1376 -352 0
v -1408 -352 0
v -1408 -320 0
v -1376 -320 0
v -1408 -352 0
v -1440 -352 0
v -1440 -320 0
v -1408 -320 0
v -1440 -352 0
v -1472 -352 0
v -1472 -320 0
v -1440 -320 0
v -1472 -352 0
v -1504 -352 0
v -1504 -320 0
v -1472 -320 0
v -1504 -352 0
v -1536 -352 0
v -1536 -320 0
v -1504 -320 0
v -1536 -352 0
v -1568 -352 0
v -1568 -320 0
v -1536 -320 0
v -1568 -352 0
v -1600 -352 0
v -1600 -320 0
v -1568 -320 0
v -768 -384 0
v -800 -384 0
v -800 -352 0
v -768 -352 0
v -800 -384 0
v -832 -384 0
v -832 -352 0
v -800 -352 0
v -832 -384 0
v -864 -384 0
v -864 -352 0
v -832 -352 0
v -864 -384 0
v -896 -384 0
v -896 -352 0
v -864 -352 0
v -896 -384 0
v -928 -384 0
v -928 -352 0
v -896 -352 0
v -928 -384 0
v -960 -384 0
v -960 -352 0
v -928 -352 0
v -960 -384 0
v -992 -384 0
v -992 -352 0
v -960 -352 0
v -992 -384 0
v -1024 -384 0
v -1024 -352 0
v -992 -352 0
v -1024 -384 0
v -1056 -384 0
v -1056 -352 0
v -1024 -352 0
v -1056 -384 0
v -1088 -384 0
v -1088 -352 0
v -1056 -352 0
v -1088 -384 0
v -1120 -384 0
v -1120 -352 0
v -1088 -352 0
v -1120 -384 0
v -1152 -384 0
v -1152 -352 0
v -1120 -352 0
v -1152 -384 0
v -1184 -384 0
v -1184 -352 0
v -1152 -352 0
v -1184 -384 0
v -1216 -384 0
v -1216 -352 0
v -1184 -352 0
v -1216 -384 0
v -1248 -384 0
v -1248 -352 0
v -1216 -352 0
v -1248 -384 0
v -1280 -384 0
v -1280 -352 0
v -1248 -352 0
v -1280 -384 0
v -1312 -384 0
v -1312 -352 0
v -1280 -352 0
v -1312 -384 0
v -1344 -384 0
v -1344 -352 0
v -1312 -352 0
v -1344 -384 0
v -1376 -384 0
v -1376 -352 0
v -1344 -352 0
v -1376 -384 0
v -1408 -384 0
v -1408 -352 0
v -1376 -352 0
v -1408 -384 0
v -1440 -384 0
v -1440 -352 0
v -1408 -352 0
v -1440 -384 0
v -1472 -384 0
v -1472 -352 0
v -1440 -352 0
v -1472 -384 0
v -1504 -384 0
v -1504 -352 0
v -1472 -352 0
v -1504 -384 0
v -1536 -384 0
v -1536 -352 0
v -1504 -352 0
v -1536 -384 0
v -1568 -384 0
v -1568 -352 0
v -1536 -352 0
v -1568 -384 0
v -1600 -384 0
v -1600 -352 0
v -1568 -352 0
v -1408 -416 0
v -1440 -416 0
v -1440 -384 0
v -1408 -384 0
v -1440 -416 0
v -1472 -416 0
v -1472 -384 0
v -1440 -384 0
v -1472 -416 0
v -1504 -416 0
v -1504 -384 0
v -1472 -384 0
v -1504 -416 0
v -1536 -416 0
v -1536 -384 0
v -1504 -384 0
v -1536 -416 0
v -1568 -416 0
v -1568 -384 0
v -1536 -384 0
v -1568 -416 0
v -1600 -416 0
v -1600 -384 0
v -1568 -384 0
v -1408 -448 0
v -1440 -448 0
v -1440 -416 0
v -1408 -416 0
v -1440 -448 0
v -1472 -448 0
v -1472 -416 0
v -1440 -416 0
v -1472 -448 0
v -1504 -448 0
v -1504 -416 0
v -1472 -416 0
v -1504 -448 0
v -1536 -448 0
v -1536 -416 0
v -1504 -416 0
v -1536 -448 0
v -1568 -448 0
v -1568 -416 0
v -1536 -416 0
v -1568 -448 0
v -1600 -448 0
v -1600 -416 0
v -1568 -416 0
v -1408 -480 0
v -1440 -480 0
v -1440 -448 0
v -1408 -448 0
v -1440 -480 0
v -1472 -480 0
v -1472 -448 0
v -1440 -448 0
v -1472 -480 0
v -1504 -480 0
v -1504 -448 0
v -1472 -448 0
v -1504 -480 0
v -1536 -480 0
v -1536 -448 0
v -1504 -448 0
v -1536 -480 0
v -1568 -480 0
v -1568 -448 0
v -1536 -448 0
v -1568 -480 0
v -1600 -480 0
v -1600 -448 0
v -1568 -448 0
v -1408 -512 0
v -1440 -512 0
v -1440 -480 0
v -1408 -480 0
v -1440 -512 0
v -1472 -512 0
v -1472 -480 0
v -1440 -480 0
v -1472 -512 0
v -1504 -512 0
v -1504 -480 0
v -1472 -480 0
v -1504 -512 0
v -1536 -512 0
v -1536 -480 0
v -1504 -480 0
v -1536 -512 0
v -1568 -512 0
v -1568 -480 0
v -1536 -480 0
v -1568 -512 0
v -1600 -512 0
v -1600 -480 0
v -1568 -480 0
v -1440 -544 0
v -1472 -544 0
v -1472 -512 0
v -1440 -512 0
v -1472 -544 0
v -1504 -544 0
v -1504 -512 0
v -1472 -512 0
v -1504 -544 0
v -1536 -544 0
v -1536 -512 0
v -1504 -512 0
v -1536 -544 0
v -1568 -544 0
v -1568 -512 0
v -1536 -512 0
v -1568 -544 0
v -1600 -544 0
v -1600 -512 0
v -1568 -512 0
v -1440 -576 0
v -1472 -576 0
v -1472 -544 0
v -1440 -544 0
v -1472 -576 0
v -1504 -576 0
v -1504 -544 0
v -1472 -544 0
v -1504 -576 0
v -1536 -576 0
v -1536 -544 0
v -1504 -544 0
v -1536 -576 0
v -1568 -576 0
v -1568 -544 0
v -1536 -544 0
v -1568 -576 0
v -1600 -576 0
v -1600 -544 0
v -1568 -544 0
v -1440 -608 0
v -1472 -608 0
v -1472 -576 0
v -1440 -576 0
v -1472 -608 0
v -1504 -608 0
v -1504 -576 0
v -1472 -576 0
v -1504 -608 0
v -1536 -608 0
v -1536 -576 0
v -1504 -576 0
v -1536 -608 0
v -1568 -608 0
v -1568 -576 0
v -1536 -576 0
v -1568 -608 0
v -1600 -608 0
v -1600 -576 0
v -1568 -576 0
v -1440 -640 0
v -1472 -640 0
v -1472 -608 0
v -1440 -608 0
v -1472 -640 0
v -1504 -640 0
v -1504 -608 0
v -1472 -608 0
v -1504 -640 0
v -1536 -640 0
v -1536 -608 0
v -1504 -608 0
v -1536 -640 0
v -1568 -640 0
v -1568 -608 0
v -1536 -608 0
v -1568 -640 0
v -1600 -640 0
v -1600 -608 0
v -1568 -608 0
v -1440 -672 0
v -1472 -672 0
v -1472 -640 0
v -1440 -640 0
v -1472 -672 0
v -1504 -672 0
v -1504 -640 0
v -1472 -640 0
v -1504 -672 0
v -1536 -672 0
v -1536 -640 0
v -1504 -640 0
v -1536 -672 0
v -1568 -672 0
v -1568 -640 0
v -1536 -640 0
v -1568 -672 0
v -1600 -672 0
v -1600 -640 0
v -1568 -640 0
v -1440 -704 0
v -1472 -704 0
v -1472 -672 0
v -1440 -672 0
v -1472 -704 0
v -1504 -704 0
v -1504 -672 0
v -1472 -672 0
v -1504 -704 0
v -1536 -704 0
v -1536 -672 0
v -1504 -672 0
v -1536 -704 0
v -1568 -704 0
v -1568 -672 0
v -1536 -672 0
v -1568 -704 0
v -1600 -704 0
v -1600 -672 0
v -1568 -672 0
v -1440 -736 0
v -1472 -736 0
v -1472 -704 0
v -1440 -704 0
v -1472 -736 0
v -1504 -736 0
v -1504 -704 0
v -1472 -704 0
v -1504 -736 0
v -1536 -736 0
v -1536 -704 0
v -1504 -704 0
v -1536 -736 0
v -1568 -736 0
v -1568 -704 0
v -1536 -704 0
v -1568 -736 0
v -1600 -736 0
v -1600 -704 0
v -1568 -704 0
v -1440 -768 0
v -1472 -768 0
v -1472 -736 0
v -1440 -736 0
v -1472 -768 0
v -1504 -768 0
v -1504 -736 0
v -1472 -736 0
v -1504 -768 0
v -1536 -768 0
v -1536 -736 0
v -1504 -736 0
v -1536 -768 0
v -1568 -768 0
v -1568 -736 0
v -1536 -736 0
v -1568 -768 0
v -1600 -768 0
v -1600 -736 0
v -1568 -736 0
v -1440 -800 0
v -1472 -800 0
v -1472 -768 0
v -1440 -768 0
v -1472 -800 0
v -1504 -800 0
v -1504 -768 0
v -1472 -768 0
v -1504 -800 0
v -1536 -800 0
v -1536 -768 0
v -1504 -768 0
v -1536 -800 0
v -1568 -800 0
v -1568 -768 0
v -1536 -768 0
v -1568 -800 0
v -1600 -800 0
v -1600 -768 0
v -1568 -768 0
v -1440 -832 0
v -1472 -832 0
v -1472 -800 0
v -1440 -800 0
v -1472 -832 0
v -1504 -832 0
v -1504 -800 0
v -1472 -800 0
v -1504 -832 0
v -1536 -832 0
v -1536 -800 0
v -1504 -800 0
v -1536 -832 0
v -1568 -832 0
v -1568 -800 0
v -1536 -800 0
v -1568 -832 0
v -1600 -832 0
v -1600 -800 0
v -1568 -800 0
v -1440 -864 0
v -1472 -864 0
v -1472 -832 0
v -1440 -832 0
v -1472 -864 0
v -1504 -864 0
v -1504 -832 0
v -1472 -832 0
v -1504 -864 0
v -1536 -864 0
v -1536 -832 0
v -1504 -832 0
v -1536 -864 0
v -1568 -864 0
v -1568 -832 0
v -1536 -832 0
v -1568 -864 0
v -1600 -864 0
v -1600 -832 0
v -1568 -832 0
v -1440 -896 0
v -1472 -896 0
v -1472 -864 0
v -1440 -864 0
v -1472 -896 0
v -1504 -896 0
v -1504 -864 0
v -1472 -864 0
v -1504 -896 0
v -1536 -896 0
v -1536 -864 0
v -1504 -864 0
v -1536 -896 0
v -1568 -896 0
v -1568 -864 0
v -1536 -864 0
v -1568 -896 0
v -1600 -896 0
v -1600 -864 0
v -1568 -864 0
v -1440 -928 0
v -1472 -928 0
v -1472 -896 0
v -1440 -896 0
v -1472 -928 0
v -1504 -928 0
v -1504 -896 0
v -1472 -896 0
v -1504 -928 0
v -1536 -928 0
v -1536 -896 0
v -1504 -896 0
v -1536 -928 0
v -1568 -928 0
v -1568 -896 0
v -1536 -896 0
v -1568 -928 0
v -1600 -928 0
v -1600 -896 0
v -1568 -896 0
v -1440 -960 0
v -1472 -960 0
v -1472 -928 0
v -1440 -928 0
v -1472 -960 0
v -1504 -960 0
v -1504 -928 0
v -1472 -928 0
v -1504 -960 0
v -1536 -960 0
v -1536 -928 0
v -1504 -928 0
v -1536 -960 0
v -1568 -960 0
v -1568 -928 0
v -1536 -928 0
v -1568 -960 0
v -1600 -960 0
v -1600 -928 0
v -1568 -928 0
v -1440 -992 0
v -1472 -992 0
v -1472 -960 0
v -1440 -960 0
v -1472 -992 0
v -1504 -992 0
v -1504 -960 0
v -1472 -960 0
v -1504 -992 0
v -1536 -992 0
v -1536 -960 0
v -1504 -960 0
v -1536 -992 0
v -1568 -992 0
v -1568 -960 0
v -1536 -960 0
v -1568 -992 0
v -1600 -992 0
v -1600 -960 0
v -1568 -960 0
v -1440 -1024 0
v -1472 -1024 0
v -1472 -992 0
v -1440 -992 0
v -1472 -1024 0
v -1504 -1024 0
v -1504 -992 0
v -1472 -992 0
v -1504 -1024 0
v -1536 -1024 0
v -1536 -992 0
v -1504 -992 0
v -1536 -1024 0
v -1568 -1024 0
v -1568 -992 0
v -1536 -992 0
v -1568 -1024 0
v -1600 -1024 0
v -1600 -992 0
v -1568 -992 0
v -1440 -1056 0
v -1472 -1056 0
v -1472 -1024 0
v -1440 -1024 0
v -1472 -1056 0
v -1504 -1056 0
v -1504 -1024 0
v -1472 -1024 0
v -1504 -1056 0
v -1536 -1056 0
v -1536 -1024 0
v -1504 -1024 0
v -1536 -1056 0
v -1568 -1056 0
v -1568 -1024 0
v -1536 -1024 0
v -1568 -1056 0
v -1600 -1056 0
v -1600 -1024 0
v -1568 -1024 0
v -1440 -1088 0
v -1472 -1088 0
v -1472 -1056 0
v -1440 -1056 0
v -1472 -1088 0
v -1504 -1088 0
v -1504 -1056 0
v -1472 -1056 0
v -1504 -1088 0
v -1536 -1088 0
v -1536 -1056 0
v -1504 -1056 0
v -1536 -1088 0
v -1568 -1088 0
v -1568 -1056 0
v -1536 -1056 0
v -1568 -1088 0
v -1600 -1088 0
v -1600 -1056 0
v -1568 -1056 0
v -1440 -1120 0
v -1472 -1120 0
v -1472 -1088 0
v -1440 -1088 0
v -1472 -1120 0
v -1504 -1120 0
v -1504 -1088 0
v -1472 -1088 0
v -1504 -1120 0
v -1536 -1120 0
v -1536 -1088 0
v -1504 -1088 0
v -1536 -1120 0
v -1568 -1120 0
v -1568 -1088 0
v -1536 -1088 0
v -1568 -1120 0
v -1600 -1120 0
v -1600 -1088 0
v -1568 -1088 0

# Texture cooridinates (Count = 19)
vt 0.25 0.5625
vt 0.28125 0.5625
vt 0.28125 0.59375
vt 0.25 0.59375
vt 0.1875 0.625
vt 0.21875 0.625
vt 0.21875 0.65625
vt 0.1875 0.65625
vt 0.25 0.625
vt 0.25 0.65625
vt 0.28125 0.65625
vt 0.28125 0.6875
vt 0.25 0.6875
vt 0.21875 0.59375
vt 0.1875 0.59375
vt 0.1875 0.5625
vt 0.21875 0.5625
vt 0.28125 0.71875
vt 0.25 0.71875

# Normal
vn 0 0 -1

# Mesh description
g Grassland---Lanes_mesh_0002

# Faces
f 1/1/1 2/2/1 3/3/1 4/4/1
f 5/5/1 6/6/1 7/7/1 8/8/1
f 9/6/1 10/9/1 11/10/1 12/7/1
f 13/6/1 14/9/1 15/10/1 16/7/1
f 17/5/1 18/6/1 19/7/1 20/8/1
f 21/6/1 22/9/1 23/10/1 24/7/1
f 25/10/1 26/11/1 27/12/1 28/13/1
f 29/14/1 30/4/1 31/9/1 32/6/1
f 33/14/1 34/4/1 35/9/1 36/6/1
f 37/15/1 38/14/1 39/6/1 40/5/1
f 41/14/1 42/4/1 43/9/1 44/6/1
f 45/14/1 46/4/1 47/9/1 48/6/1
f 49/14/1 50/4/1 51/9/1 52/6/1
f 53/14/1 54/4/1 55/9/1 56/6/1
f 57/5/1 58/6/1 59/7/1 60/8/1
f 61/6/1 62/9/1 63/10/1 64/7/1
f 65/6/1 66/9/1 67/10/1 68/7/1
f 69/6/1 70/9/1 71/10/1 72/7/1
f 73/6/1 74/9/1 75/10/1 76/7/1
f 77/6/1 78/9/1 79/10/1 80/7/1
f 81/6/1 82/9/1 83/10/1 84/7/1
f 85/6/1 86/9/1 87/10/1 88/7/1
f 89/6/1 90/9/1 91/10/1 92/7/1
f 93/6/1 94/9/1 95/10/1 96/7/1
f 97/6/1 98/9/1 99/10/1 100/7/1
f 101/6/1 102/9/1 103/10/1 104/7/1
f 105/6/1 106/9/1 107/10/1 108/7/1
f 109/6/1 110/9/1 111/10/1 112/7/1
f 113/6/1 114/9/1 115/10/1 116/7/1
f 117/6/1 118/9/1 119/10/1 120/7/1
f 121/6/1 122/9/1 123/10/1 124/7/1
f 125/6/1 126/9/1 127/10/1 128/7/1
f 129/6/1 130/9/1 131/10/1 132/7/1
f 133/10/1 134/11/1 135/12/1 136/13/1
f 137/14/1 138/4/1 139/9/1 140/6/1
f 141/14/1 142/4/1 143/9/1 144/6/1
f 145/14/1 146/4/1 147/9/1 148/6/1
f 149/14/1 150/4/1 151/9/1 152/6/1
f 153/5/1 154/6/1 155/7/1 156/8/1
f 157/6/1 158/9/1 159/10/1 160/7/1
f 161/10/1 162/11/1 163/12/1 164/13/1
f 165/14/1 166/4/1 167/9/1 168/6/1
f 169/14/1 170/4/1 171/9/1 172/6/1
f 173/14/1 174/4/1 175/9/1 176/6/1
f 177/14/1 178/4/1 179/9/1 180/6/1
f 181/14/1 182/4/1 183/9/1 184/6/1
f 185/14/1 186/4/1 187/9/1 188/6/1
f 189/14/1 190/4/1 191/9/1 192/6/1
f 193/14/1 194/4/1 195/9/1 196/6/1
f 197/14/1 198/4/1 199/9/1 200/6/1
f 201/14/1 202/4/1 203/9/1 204/6/1
f 205/14/1 206/4/1 207/9/1 208/6/1
f 209/14/1 210/4/1 211/9/1 212/6/1
f 213/14/1 214/4/1 215/9/1 216/6/1
f 217/14/1 218/4/1 219/9/1 220/6/1
f 221/14/1 222/4/1 223/9/1 224/6/1
f 225/14/1 226/4/1 227/9/1 228/6/1
f 229/14/1 230/4/1 231/9/1 232/6/1
f 233/14/1 234/4/1 235/9/1 236/6/1
f 237/14/1 238/4/1 239/9/1 240/6/1
f 241/14/1 242/4/1 243/9/1 244/6/1
f 245/14/1 246/4/1 247/9/1 248/6/1
f 249/14/1 250/4/1 251/9/1 252/6/1
f 253/14/1 254/4/1 255/9/1 256/6/1
f 257/15/1 258/14/1 259/6/1 260/5/1
f 261/14/1 262/4/1 263/9/1 264/6/1
f 265/14/1 266/4/1 267/9/1 268/6/1
f 269/14/1 270/4/1 271/9/1 272/6/1
f 273/14/1 274/4/1 275/9/1 276/6/1
f 277/14/1 278/4/1 279/9/1 280/6/1
f 281/14/1 282/4/1 283/9/1 284/6/1
f 285/14/1 286/4/1 287/9/1 288/6/1
f 289/14/1 290/4/1 291/9/1 292/6/1
f 293/14/1 294/4/1 295/9/1 296/6/1
f 297/14/1 298/4/1 299/9/1 300/6/1
f 301/14/1 302/4/1 303/9/1 304/6/1
f 305/14/1 306/4/1 307/9/1 308/6/1
f 309/14/1 310/4/1 311/9/1 312/6/1
f 313/14/1 314/4/1 315/9/1 316/6/1
f 317/14/1 318/4/1 319/9/1 320/6/1
f 321/14/1 322/4/1 323/9/1 324/6/1
f 325/14/1 326/4/1 327/9/1 328/6/1
f 329/14/1 330/4/1 331/9/1 332/6/1
f 333/14/1 334/4/1 335/9/1 336/6/1
f 337/14/1 338/4/1 339/9/1 340/6/1
f 341/14/1 342/4/1 343/9/1 344/6/1
f 345/14/1 346/4/1 347/9/1 348/6/1
f 349/14/1 350/4/1 351/9/1 352/6/1
f 353/14/1 354/4/1 355/9/1 356/6/1
f 357/14/1 358/4/1 359/9/1 360/6/1
f 361/16/1 362/17/1 363/14/1 364/15/1
f 365/17/1 366/1/1 367/4/1 368/14/1
f 369/17/1 370/1/1 371/4/1 372/14/1
f 373/17/1 374/1/1 375/4/1 376/14/1
f 377/17/1 378/1/1 379/4/1 380/14/1
f 381/17/1 382/1/1 383/4/1 384/14/1
f 385/17/1 386/1/1 387/4/1 388/14/1
f 389/17/1 390/1/1 391/4/1 392/14/1
f 393/17/1 394/1/1 395/4/1 396/14/1
f 397/17/1 398/1/1 399/4/1 400/14/1
f 401/17/1 402/1/1 403/4/1 404/14/1
f 405/17/1 406/1/1 407/4/1 408/14/1
f 409/17/1 410/1/1 411/4/1 412/14/1
f 413/17/1 414/1/1 415/4/1 416/14/1
f 417/17/1 418/1/1 419/4/1 420/14/1
f 421/17/1 422/1/1 423/4/1 424/14/1
f 425/17/1 426/1/1 427/4/1 428/14/1
f 429/17/1 430/1/1 431/4/1 432/14/1
f 433/17/1 434/1/1 435/4/1 436/14/1
f 437/17/1 438/1/1 439/4/1 440/14/1
f 441/13/1 442/12/1 443/18/1 444/19/1
f 445/14/1 446/4/1 447/9/1 448/6/1
f 449/14/1 450/4/1 451/9/1 452/6/1
f 453/14/1 454/4/1 455/9/1 456/6/1
f 457/14/1 458/4/1 459/9/1 460/6/1
f 461/14/1 462/4/1 463/9/1 464/6/1
f 465/15/1 466/14/1 467/6/1 468/5/1
f 469/14/1 470/4/1 471/9/1 472/6/1
f 473/14/1 474/4/1 475/9/1 476/6/1
f 477/14/1 478/4/1 479/9/1 480/6/1
f 481/14/1 482/4/1 483/9/1 484/6/1
f 485/14/1 486/4/1 487/9/1 488/6/1
f 489/15/1 490/14/1 491/6/1 492/5/1
f 493/14/1 494/4/1 495/9/1 496/6/1
f 497/14/1 498/4/1 499/9/1 500/6/1
f 501/14/1 502/4/1 503/9/1 504/6/1
f 505/14/1 506/4/1 507/9/1 508/6/1
f 509/14/1 510/4/1 511/9/1 512/6/1
f 513/15/1 514/14/1 515/6/1 516/5/1
f 517/14/1 518/4/1 519/9/1 520/6/1
f 521/14/1 522/4/1 523/9/1 524/6/1
f 525/14/1 526/4/1 527/9/1 528/6/1
f 529/14/1 530/4/1 531/9/1 532/6/1
f 533/14/1 534/4/1 535/9/1 536/6/1
f 537/16/1 538/17/1 539/14/1 540/15/1
f 541/13/1 542/12/1 543/18/1 544/19/1
f 545/14/1 546/4/1 547/9/1 548/6/1
f 549/14/1 550/4/1 551/9/1 552/6/1
f 553/14/1 554/4/1 555/9/1 556/6/1
f 557/14/1 558/4/1 559/9/1 560/6/1
f 561/15/1 562/14/1 563/6/1 564/5/1
f 565/14/1 566/4/1 567/9/1 568/6/1
f 569/14/1 570/4/1 571/9/1 572/6/1
f 573/14/1 574/4/1 575/9/1 576/6/1
f 577/14/1 578/4/1 579/9/1 580/6/1
f 581/15/1 582/14/1 583/6/1 584/5/1
f 585/14/1 586/4/1 587/9/1 588/6/1
f 589/14/1 590/4/1 591/9/1 592/6/1
f 593/14/1 594/4/1 595/9/1 596/6/1
f 597/14/1 598/4/1 599/9/1 600/6/1
f 601/15/1 602/14/1 603/6/1 604/5/1
f 605/14/1 606/4/1 607/9/1 608/6/1
f 609/14/1 610/4/1 611/9/1 612/6/1
f 613/14/1 614/4/1 615/9/1 616/6/1
f 617/14/1 618/4/1 619/9/1 620/6/1
f 621/15/1 622/14/1 623/6/1 624/5/1
f 625/14/1 626/4/1 627/9/1 628/6/1
f 629/14/1 630/4/1 631/9/1 632/6/1
f 633/14/1 634/4/1 635/9/1 636/6/1
f 637/14/1 638/4/1 639/9/1 640/6/1
f 641/15/1 642/14/1 643/6/1 644/5/1
f 645/14/1 646/4/1 647/9/1 648/6/1
f 649/14/1 650/4/1 651/9/1 652/6/1
f 653/14/1 654/4/1 655/9/1 656/6/1
f 657/14/1 658/4/1 659/9/1 660/6/1
f 661/15/1 662/14/1 663/6/1 664/5/1
f 665/14/1 666/4/1 667/9/1 668/6/1
f 669/14/1 670/4/1 671/9/1 672/6/1
f 673/14/1 674/4/1 675/9/1 676/6/1
f 677/14/1 678/4/1 679/9/1 680/6/1
f 681/15/1 682/14/1 683/6/1 684/5/1
f 685/14/1 686/4/1 687/9/1 688/6/1
f 689/14/1 690/4/1 691/9/1 692/6/1
f 693/14/1 694/4/1 695/9/1 696/6/1
f 697/14/1 698/4/1 699/9/1 700/6/1
f 701/15/1 702/14/1 703/6/1 704/5/1
f 705/14/1 706/4/1 707/9/1 708/6/1
f 709/14/1 710/4/1 711/9/1 712/6/1
f 713/14/1 714/4/1 715/9/1 716/6/1
f 717/14/1 718/4/1 719/9/1 720/6/1
f 721/15/1 722/14/1 723/6/1 724/5/1
f 725/14/1 726/4/1 727/9/1 728/6/1
f 729/14/1 730/4/1 731/9/1 732/6/1
f 733/14/1 734/4/1 735/9/1 736/6/1
f 737/14/1 738/4/1 739/9/1 740/6/1
f 741/15/1 742/14/1 743/6/1 744/5/1
f 745/14/1 746/4/1 747/9/1 748/6/1
f 749/14/1 750/4/1 751/9/1 752/6/1
f 753/14/1 754/4/1 755/9/1 756/6/1
f 757/14/1 758/4/1 759/9/1 760/6/1
f 761/15/1 762/14/1 763/6/1 764/5/1
f 765/14/1 766/4/1 767/9/1 768/6/1
f 769/14/1 770/4/1 771/9/1 772/6/1
f 773/14/1 774/4/1 775/9/1 776/6/1
f 777/14/1 778/4/1 779/9/1 780/6/1
f 781/15/1 782/14/1 783/6/1 784/5/1
f 785/14/1 786/4/1 787/9/1 788/6/1
f 789/14/1 790/4/1 791/9/1 792/6/1
f 793/14/1 794/4/1 795/9/1 796/6/1
f 797/14/1 798/4/1 799/9/1 800/6/1
f 801/15/1 802/14/1 803/6/1 804/5/1
f 805/14/1 806/4/1 807/9/1 808/6/1
f 809/14/1 810/4/1 811/9/1 812/6/1
f 813/14/1 814/4/1 815/9/1 816/6/1
f 817/14/1 818/4/1 819/9/1 820/6/1
f 821/15/1 822/14/1 823/6/1 824/5/1
f 825/14/1 826/4/1 827/9/1 828/6/1
f 829/14/1 830/4/1 831/9/1 832/6/1
f 833/14/1 834/4/1 835/9/1 836/6/1
f 837/14/1 838/4/1 839/9/1 840/6/1
f 841/15/1 842/14/1 843/6/1 844/5/1
f 845/14/1 846/4/1 847/9/1 848/6/1
f 849/14/1 850/4/1 851/9/1 852/6/1
f 853/14/1 854/4/1 855/9/1 856/6/1
f 857/14/1 858/4/1 859/9/1 860/6/1
f 861/15/1 862/14/1 863/6/1 864/5/1
f 865/14/1 866/4/1 867/9/1 868/6/1
f 869/14/1 870/4/1 871/9/1 872/6/1
f 873/14/1 874/4/1 875/9/1 876/6/1
f 877/14/1 878/4/1 879/9/1 880/6/1
f 881/15/1 882/14/1 883/6/1 884/5/1
f 885/14/1 886/4/1 887/9/1 888/6/1
f 889/14/1 890/4/1 891/9/1 892/6/1
f 893/14/1 894/4/1 895/9/1 896/6/1
f 897/14/1 898/4/1 899/9/1 900/6/1
f 901/15/1 902/14/1 903/6/1 904/5/1
f 905/14/1 906/4/1 907/9/1 908/6/1
f 909/14/1 910/4/1 911/9/1 912/6/1
f 913/14/1 914/4/1 915/9/1 916/6/1
f 917/14/1 918/4/1 919/9/1 920/6/1
f 921/15/1 922/14/1 923/6/1 924/5/1
f 925/14/1 926/4/1 927/9/1 928/6/1
f 929/14/1 930/4/1 931/9/1 932/6/1
f 933/14/1 934/4/1 935/9/1 936/6/1
f 937/14/1 938/4/1 939/9/1 940/6/1

