# Tiled2Unity generated file. Do not modify by hand.
# Wavefront file for 'Grassland---Lanes_mesh_0004.obj'

# Vertices (Count = 776)
v -1568 -96 0
v -1600 -96 0
v -1600 -64 0
v -1568 -64 0
v -1440 -128 0
v -1472 -128 0
v -1472 -96 0
v -1440 -96 0
v -1472 -128 0
v -1504 -128 0
v -1504 -96 0
v -1472 -96 0
v -1504 -128 0
v -1536 -128 0
v -1536 -96 0
v -1504 -96 0
v -1536 -128 0
v -1568 -128 0
v -1568 -96 0
v -1536 -96 0
v -1568 -128 0
v -1600 -128 0
v -1600 -96 0
v -1568 -96 0
v -1440 -160 0
v -1472 -160 0
v -1472 -128 0
v -1440 -128 0
v -1472 -160 0
v -1504 -160 0
v -1504 -128 0
v -1472 -128 0
v -1504 -160 0
v -1536 -160 0
v -1536 -128 0
v -1504 -128 0
v -1536 -160 0
v -1568 -160 0
v -1568 -128 0
v -1536 -128 0
v -1568 -160 0
v -1600 -160 0
v -1600 -128 0
v -1568 -128 0
v -1440 -192 0
v -1472 -192 0
v -1472 -160 0
v -1440 -160 0
v -1472 -192 0
v -1504 -192 0
v -1504 -160 0
v -1472 -160 0
v -1504 -192 0
v -1536 -192 0
v -1536 -160 0
v -1504 -160 0
v -1536 -192 0
v -1568 -192 0
v -1568 -160 0
v -1536 -160 0
v -1568 -192 0
v -1600 -192 0
v -1600 -160 0
v -1568 -160 0
v -256 -224 0
v -288 -224 0
v -288 -192 0
v -256 -192 0
v -288 -224 0
v -320 -224 0
v -320 -192 0
v -288 -192 0
v -320 -224 0
v -352 -224 0
v -352 -192 0
v -320 -192 0
v -352 -224 0
v -384 -224 0
v -384 -192 0
v -352 -192 0
v -384 -224 0
v -416 -224 0
v -416 -192 0
v -384 -192 0
v -416 -224 0
v -448 -224 0
v -448 -192 0
v -416 -192 0
v -448 -224 0
v -480 -224 0
v -480 -192 0
v -448 -192 0
v -480 -224 0
v -512 -224 0
v -512 -192 0
v -480 -192 0
v -512 -224 0
v -544 -224 0
v -544 -192 0
v -512 -192 0
v -544 -224 0
v -576 -224 0
v -576 -192 0
v -544 -192 0
v -576 -224 0
v -608 -224 0
v -608 -192 0
v -576 -192 0
v -608 -224 0
v -640 -224 0
v -640 -192 0
v -608 -192 0
v -640 -224 0
v -672 -224 0
v -672 -192 0
v -640 -192 0
v -672 -224 0
v -704 -224 0
v -704 -192 0
v -672 -192 0
v -704 -224 0
v -736 -224 0
v -736 -192 0
v -704 -192 0
v -736 -224 0
v -768 -224 0
v -768 -192 0
v -736 -192 0
v -768 -224 0
v -800 -224 0
v -800 -192 0
v -768 -192 0
v -800 -224 0
v -832 -224 0
v -832 -192 0
v -800 -192 0
v -832 -224 0
v -864 -224 0
v -864 -192 0
v -832 -192 0
v -864 -224 0
v -896 -224 0
v -896 -192 0
v -864 -192 0
v -896 -224 0
v -928 -224 0
v -928 -192 0
v -896 -192 0
v -928 -224 0
v -960 -224 0
v -960 -192 0
v -928 -192 0
v -960 -224 0
v -992 -224 0
v -992 -192 0
v -960 -192 0
v -992 -224 0
v -1024 -224 0
v -1024 -192 0
v -992 -192 0
v -1024 -224 0
v -1056 -224 0
v -1056 -192 0
v -1024 -192 0
v -1056 -224 0
v -1088 -224 0
v -1088 -192 0
v -1056 -192 0
v -1088 -224 0
v -1120 -224 0
v -1120 -192 0
v -1088 -192 0
v -1120 -224 0
v -1152 -224 0
v -1152 -192 0
v -1120 -192 0
v -1152 -224 0
v -1184 -224 0
v -1184 -192 0
v -1152 -192 0
v -1184 -224 0
v -1216 -224 0
v -1216 -192 0
v -1184 -192 0
v -1216 -224 0
v -1248 -224 0
v -1248 -192 0
v -1216 -192 0
v -1248 -224 0
v -1280 -224 0
v -1280 -192 0
v -1248 -192 0
v -1280 -224 0
v -1312 -224 0
v -1312 -192 0
v -1280 -192 0
v -1312 -224 0
v -1344 -224 0
v -1344 -192 0
v -1312 -192 0
v -1344 -224 0
v -1376 -224 0
v -1376 -192 0
v -1344 -192 0
v -1376 -224 0
v -1408 -224 0
v -1408 -192 0
v -1376 -192 0
v -1408 -224 0
v -1440 -224 0
v -1440 -192 0
v -1408 -192 0
v -1440 -224 0
v -1472 -224 0
v -1472 -192 0
v -1440 -192 0
v -256 -256 0
v -288 -256 0
v -288 -224 0
v -256 -224 0
v -288 -256 0
v -320 -256 0
v -320 -224 0
v -288 -224 0
v -320 -256 0
v -352 -256 0
v -352 -224 0
v -320 -224 0
v -352 -256 0
v -384 -256 0
v -384 -224 0
v -352 -224 0
v -384 -256 0
v -416 -256 0
v -416 -224 0
v -384 -224 0
v -416 -256 0
v -448 -256 0
v -448 -224 0
v -416 -224 0
v -448 -256 0
v -480 -256 0
v -480 -224 0
v -448 -224 0
v -480 -256 0
v -512 -256 0
v -512 -224 0
v -480 -224 0
v -512 -256 0
v -544 -256 0
v -544 -224 0
v -512 -224 0
v -544 -256 0
v -576 -256 0
v -576 -224 0
v -544 -224 0
v -576 -256 0
v -608 -256 0
v -608 -224 0
v -576 -224 0
v -608 -256 0
v -640 -256 0
v -640 -224 0
v -608 -224 0
v -640 -256 0
v -672 -256 0
v -672 -224 0
v -640 -224 0
v -672 -256 0
v -704 -256 0
v -704 -224 0
v -672 -224 0
v -704 -256 0
v -736 -256 0
v -736 -224 0
v -704 -224 0
v -736 -256 0
v -768 -256 0
v -768 -224 0
v -736 -224 0
v -768 -256 0
v -800 -256 0
v -800 -224 0
v -768 -224 0
v -800 -256 0
v -832 -256 0
v -832 -224 0
v -800 -224 0
v -832 -256 0
v -864 -256 0
v -864 -224 0
v -832 -224 0
v -864 -256 0
v -896 -256 0
v -896 -224 0
v -864 -224 0
v -896 -256 0
v -928 -256 0
v -928 -224 0
v -896 -224 0
v -928 -256 0
v -960 -256 0
v -960 -224 0
v -928 -224 0
v -960 -256 0
v -992 -256 0
v -992 -224 0
v -960 -224 0
v -992 -256 0
v -1024 -256 0
v -1024 -224 0
v -992 -224 0
v -1024 -256 0
v -1056 -256 0
v -1056 -224 0
v -1024 -224 0
v -1056 -256 0
v -1088 -256 0
v -1088 -224 0
v -1056 -224 0
v -1088 -256 0
v -1120 -256 0
v -1120 -224 0
v -1088 -224 0
v -1120 -256 0
v -1152 -256 0
v -1152 -224 0
v -1120 -224 0
v -1152 -256 0
v -1184 -256 0
v -1184 -224 0
v -1152 -224 0
v -1184 -256 0
v -1216 -256 0
v -1216 -224 0
v -1184 -224 0
v -1216 -256 0
v -1248 -256 0
v -1248 -224 0
v -1216 -224 0
v -1248 -256 0
v -1280 -256 0
v -1280 -224 0
v -1248 -224 0
v -1280 -256 0
v -1312 -256 0
v -1312 -224 0
v -1280 -224 0
v -1312 -256 0
v -1344 -256 0
v -1344 -224 0
v -1312 -224 0
v -1344 -256 0
v -1376 -256 0
v -1376 -224 0
v -1344 -224 0
v -1376 -256 0
v -1408 -256 0
v -1408 -224 0
v -1376 -224 0
v -1408 -256 0
v -1440 -256 0
v -1440 -224 0
v -1408 -224 0
v -1440 -256 0
v -1472 -256 0
v -1472 -224 0
v -1440 -224 0
v -256 -288 0
v -288 -288 0
v -288 -256 0
v -256 -256 0
v -288 -288 0
v -320 -288 0
v -320 -256 0
v -288 -256 0
v -320 -288 0
v -352 -288 0
v -352 -256 0
v -320 -256 0
v -352 -288 0
v -384 -288 0
v -384 -256 0
v -352 -256 0
v -384 -288 0
v -416 -288 0
v -416 -256 0
v -384 -256 0
v -416 -288 0
v -448 -288 0
v -448 -256 0
v -416 -256 0
v -448 -288 0
v -480 -288 0
v -480 -256 0
v -448 -256 0
v -480 -288 0
v -512 -288 0
v -512 -256 0
v -480 -256 0
v -512 -288 0
v -544 -288 0
v -544 -256 0
v -512 -256 0
v -544 -288 0
v -576 -288 0
v -576 -256 0
v -544 -256 0
v -576 -288 0
v -608 -288 0
v -608 -256 0
v -576 -256 0
v -608 -288 0
v -640 -288 0
v -640 -256 0
v -608 -256 0
v -640 -288 0
v -672 -288 0
v -672 -256 0
v -640 -256 0
v -672 -288 0
v -704 -288 0
v -704 -256 0
v -672 -256 0
v -704 -288 0
v -736 -288 0
v -736 -256 0
v -704 -256 0
v -736 -288 0
v -768 -288 0
v -768 -256 0
v -736 -256 0
v -768 -288 0
v -800 -288 0
v -800 -256 0
v -768 -256 0
v -800 -288 0
v -832 -288 0
v -832 -256 0
v -800 -256 0
v -832 -288 0
v -864 -288 0
v -864 -256 0
v -832 -256 0
v -864 -288 0
v -896 -288 0
v -896 -256 0
v -864 -256 0
v -896 -288 0
v -928 -288 0
v -928 -256 0
v -896 -256 0
v -928 -288 0
v -960 -288 0
v -960 -256 0
v -928 -256 0
v -960 -288 0
v -992 -288 0
v -992 -256 0
v -960 -256 0
v -992 -288 0
v -1024 -288 0
v -1024 -256 0
v -992 -256 0
v -1024 -288 0
v -1056 -288 0
v -1056 -256 0
v -1024 -256 0
v -1056 -288 0
v -1088 -288 0
v -1088 -256 0
v -1056 -256 0
v -1088 -288 0
v -1120 -288 0
v -1120 -256 0
v -1088 -256 0
v -1120 -288 0
v -1152 -288 0
v -1152 -256 0
v -1120 -256 0
v -1152 -288 0
v -1184 -288 0
v -1184 -256 0
v -1152 -256 0
v -1184 -288 0
v -1216 -288 0
v -1216 -256 0
v -1184 -256 0
v -1216 -288 0
v -1248 -288 0
v -1248 -256 0
v -1216 -256 0
v -1248 -288 0
v -1280 -288 0
v -1280 -256 0
v -1248 -256 0
v -1280 -288 0
v -1312 -288 0
v -1312 -256 0
v -1280 -256 0
v -1312 -288 0
v -1344 -288 0
v -1344 -256 0
v -1312 -256 0
v -1344 -288 0
v -1376 -288 0
v -1376 -256 0
v -1344 -256 0
v -1376 -288 0
v -1408 -288 0
v -1408 -256 0
v -1376 -256 0
v -1408 -288 0
v -1440 -288 0
v -1440 -256 0
v -1408 -256 0
v -1440 -288 0
v -1472 -288 0
v -1472 -256 0
v -1440 -256 0
v -192 -320 0
v -224 -320 0
v -224 -288 0
v -192 -288 0
v -224 -320 0
v -256 -320 0
v -256 -288 0
v -224 -288 0
v -256 -320 0
v -288 -320 0
v -288 -288 0
v -256 -288 0
v -192 -352 0
v -224 -352 0
v -224 -320 0
v -192 -320 0
v -224 -352 0
v -256 -352 0
v -256 -320 0
v -224 -320 0
v -256 -352 0
v -288 -352 0
v -288 -320 0
v -256 -320 0
v -192 -384 0
v -224 -384 0
v -224 -352 0
v -192 -352 0
v -224 -384 0
v -256 -384 0
v -256 -352 0
v -224 -352 0
v -256 -384 0
v -288 -384 0
v -288 -352 0
v -256 -352 0
v -192 -416 0
v -224 -416 0
v -224 -384 0
v -192 -384 0
v -192 -448 0
v -224 -448 0
v -224 -416 0
v -192 -416 0
v -192 -480 0
v -224 -480 0
v -224 -448 0
v -192 -448 0
v -192 -512 0
v -224 -512 0
v -224 -480 0
v -192 -480 0
v -192 -544 0
v -224 -544 0
v -224 -512 0
v -192 -512 0
v -192 -576 0
v -224 -576 0
v -224 -544 0
v -192 -544 0
v -192 -608 0
v -224 -608 0
v -224 -576 0
v -192 -576 0
v -192 -640 0
v -224 -640 0
v -224 -608 0
v -192 -608 0
v -192 -672 0
v -224 -672 0
v -224 -640 0
v -192 -640 0
v -224 -672 0
v -256 -672 0
v -256 -640 0
v -224 -640 0
v -256 -672 0
v -288 -672 0
v -288 -640 0
v -256 -640 0
v -256 -704 0
v -288 -704 0
v -288 -672 0
v -256 -672 0
v -256 -736 0
v -288 -736 0
v -288 -704 0
v -256 -704 0
v -256 -768 0
v -288 -768 0
v -288 -736 0
v -256 -736 0
v -256 -800 0
v -288 -800 0
v -288 -768 0
v -256 -768 0
v -256 -832 0
v -288 -832 0
v -288 -800 0
v -256 -800 0
v -256 -864 0
v -288 -864 0
v -288 -832 0
v -256 -832 0
v -256 -896 0
v -288 -896 0
v -288 -864 0
v -256 -864 0
v -256 -928 0
v -288 -928 0
v -288 -896 0
v -256 -896 0
v -288 -928 0
v -320 -928 0
v -320 -896 0
v -288 -896 0
v -320 -928 0
v -352 -928 0
v -352 -896 0
v -320 -896 0
v -352 -928 0
v -384 -928 0
v -384 -896 0
v -352 -896 0
v -384 -928 0
v -416 -928 0
v -416 -896 0
v -384 -896 0
v -416 -928 0
v -448 -928 0
v -448 -896 0
v -416 -896 0
v -448 -928 0
v -480 -928 0
v -480 -896 0
v -448 -896 0
v -480 -928 0
v -512 -928 0
v -512 -896 0
v -480 -896 0
v -512 -928 0
v -544 -928 0
v -544 -896 0
v -512 -896 0
v -544 -928 0
v -576 -928 0
v -576 -896 0
v -544 -896 0
v -576 -928 0
v -608 -928 0
v -608 -896 0
v -576 -896 0
v -608 -928 0
v -640 -928 0
v -640 -896 0
v -608 -896 0
v -640 -928 0
v -672 -928 0
v -672 -896 0
v -640 -896 0
v -672 -928 0
v -704 -928 0
v -704 -896 0
v -672 -896 0
v -704 -928 0
v -736 -928 0
v -736 -896 0
v -704 -896 0
v -736 -928 0
v -768 -928 0
v -768 -896 0
v -736 -896 0
v -768 -928 0
v -800 -928 0
v -800 -896 0
v -768 -896 0
v -800 -928 0
v -832 -928 0
v -832 -896 0
v -800 -896 0
v -832 -928 0
v -864 -928 0
v -864 -896 0
v -832 -896 0
v -864 -928 0
v -896 -928 0
v -896 -896 0
v -864 -896 0
v -896 -928 0
v -928 -928 0
v -928 -896 0
v -896 -896 0
v -928 -928 0
v -960 -928 0
v -960 -896 0
v -928 -896 0
v -960 -928 0
v -992 -928 0
v -992 -896 0
v -960 -896 0
v -992 -928 0
v -1024 -928 0
v -1024 -896 0
v -992 -896 0
v -1024 -928 0
v -1056 -928 0
v -1056 -896 0
v -1024 -896 0
v -1056 -928 0
v -1088 -928 0
v -1088 -896 0
v -1056 -896 0
v -1088 -928 0
v -1120 -928 0
v -1120 -896 0
v -1088 -896 0
v -1120 -928 0
v -1152 -928 0
v -1152 -896 0
v -1120 -896 0
v -1152 -928 0
v -1184 -928 0
v -1184 -896 0
v -1152 -896 0
v -1184 -928 0
v -1216 -928 0
v -1216 -896 0
v -1184 -896 0
v -1216 -928 0
v -1248 -928 0
v -1248 -896 0
v -1216 -896 0
v -1248 -928 0
v -1280 -928 0
v -1280 -896 0
v -1248 -896 0
v -1280 -928 0
v -1312 -928 0
v -1312 -896 0
v -1280 -896 0
v -1312 -928 0
v -1344 -928 0
v -1344 -896 0
v -1312 -896 0
v -1344 -928 0
v -1376 -928 0
v -1376 -896 0
v -1344 -896 0
v -1376 -928 0
v -1408 -928 0
v -1408 -896 0
v -1376 -896 0
v -1408 -928 0
v -1440 -928 0
v -1440 -896 0
v -1408 -896 0

# Texture cooridinates (Count = 28)
vt 0.5 0.7777778
vt 0.5833333 0.7777778
vt 0.5833333 0.8888889
vt 0.5 0.8888889
vt 0.75 0.7777778
vt 0.8333333 0.7777778
vt 0.8333333 0.8888889
vt 0.75 0.8888889
vt 0.5 0.6666666
vt 0.5833333 0.6666666
vt 0.75 0.6666666
vt 0.8333333 0.6666666
vt 0.5 0.5555556
vt 0.5833333 0.5555556
vt 0.75 0.5555556
vt 0.8333333 0.5555556
vt 0.5 0.4444444
vt 0.5833333 0.4444444
vt 0.6666667 0.6666666
vt 0.6666667 0.7777778
vt 0.6666667 0.5555556
vt 0.6666667 0.4444444
vt 0.6666667 0.8888889
vt 0.8333333 1
vt 0.75 1
vt 0.5833333 1
vt 0.5 1
vt 0.6666667 1

# Normal
vn 0 0 -1

# Mesh description
g Grassland---Lanes_mesh_0004

# Faces
f 1/1/1 2/2/1 3/3/1 4/4/1
f 5/5/1 6/6/1 7/7/1 8/8/1
f 9/9/1 10/10/1 11/2/1 12/1/1
f 13/9/1 14/10/1 15/2/1 16/1/1
f 17/9/1 18/10/1 19/2/1 20/1/1
f 21/9/1 22/10/1 23/2/1 24/1/1
f 25/11/1 26/12/1 27/6/1 28/5/1
f 29/13/1 30/14/1 31/10/1 32/9/1
f 33/13/1 34/14/1 35/10/1 36/9/1
f 37/13/1 38/14/1 39/10/1 40/9/1
f 41/13/1 42/14/1 43/10/1 44/9/1
f 45/15/1 46/16/1 47/12/1 48/11/1
f 49/17/1 50/18/1 51/14/1 52/13/1
f 53/17/1 54/18/1 55/14/1 56/13/1
f 57/17/1 58/18/1 59/14/1 60/13/1
f 61/17/1 62/18/1 63/14/1 64/13/1
f 65/5/1 66/6/1 67/7/1 68/8/1
f 69/9/1 70/10/1 71/2/1 72/1/1
f 73/9/1 74/10/1 75/2/1 76/1/1
f 77/9/1 78/10/1 79/2/1 80/1/1
f 81/9/1 82/10/1 83/2/1 84/1/1
f 85/9/1 86/10/1 87/2/1 88/1/1
f 89/9/1 90/10/1 91/2/1 92/1/1
f 93/9/1 94/10/1 95/2/1 96/1/1
f 97/9/1 98/10/1 99/2/1 100/1/1
f 101/9/1 102/10/1 103/2/1 104/1/1
f 105/9/1 106/10/1 107/2/1 108/1/1
f 109/9/1 110/10/1 111/2/1 112/1/1
f 113/9/1 114/10/1 115/2/1 116/1/1
f 117/9/1 118/10/1 119/2/1 120/1/1
f 121/9/1 122/10/1 123/2/1 124/1/1
f 125/9/1 126/10/1 127/2/1 128/1/1
f 129/9/1 130/10/1 131/2/1 132/1/1
f 133/9/1 134/10/1 135/2/1 136/1/1
f 137/9/1 138/10/1 139/2/1 140/1/1
f 141/9/1 142/10/1 143/2/1 144/1/1
f 145/9/1 146/10/1 147/2/1 148/1/1
f 149/9/1 150/10/1 151/2/1 152/1/1
f 153/9/1 154/10/1 155/2/1 156/1/1
f 157/9/1 158/10/1 159/2/1 160/1/1
f 161/9/1 162/10/1 163/2/1 164/1/1
f 165/9/1 166/10/1 167/2/1 168/1/1
f 169/9/1 170/10/1 171/2/1 172/1/1
f 173/9/1 174/10/1 175/2/1 176/1/1
f 177/9/1 178/10/1 179/2/1 180/1/1
f 181/9/1 182/10/1 183/2/1 184/1/1
f 185/9/1 186/10/1 187/2/1 188/1/1
f 189/9/1 190/10/1 191/2/1 192/1/1
f 193/9/1 194/10/1 195/2/1 196/1/1
f 197/9/1 198/10/1 199/2/1 200/1/1
f 201/9/1 202/10/1 203/2/1 204/1/1
f 205/9/1 206/10/1 207/2/1 208/1/1
f 209/9/1 210/10/1 211/2/1 212/1/1
f 213/10/1 214/19/1 215/20/1 216/2/1
f 217/11/1 218/12/1 219/6/1 220/5/1
f 221/13/1 222/14/1 223/10/1 224/9/1
f 225/13/1 226/14/1 227/10/1 228/9/1
f 229/13/1 230/14/1 231/10/1 232/9/1
f 233/13/1 234/14/1 235/10/1 236/9/1
f 237/13/1 238/14/1 239/10/1 240/9/1
f 241/13/1 242/14/1 243/10/1 244/9/1
f 245/13/1 246/14/1 247/10/1 248/9/1
f 249/13/1 250/14/1 251/10/1 252/9/1
f 253/13/1 254/14/1 255/10/1 256/9/1
f 257/13/1 258/14/1 259/10/1 260/9/1
f 261/13/1 262/14/1 263/10/1 264/9/1
f 265/13/1 266/14/1 267/10/1 268/9/1
f 269/13/1 270/14/1 271/10/1 272/9/1
f 273/13/1 274/14/1 275/10/1 276/9/1
f 277/13/1 278/14/1 279/10/1 280/9/1
f 281/13/1 282/14/1 283/10/1 284/9/1
f 285/13/1 286/14/1 287/10/1 288/9/1
f 289/13/1 290/14/1 291/10/1 292/9/1
f 293/13/1 294/14/1 295/10/1 296/9/1
f 297/13/1 298/14/1 299/10/1 300/9/1
f 301/13/1 302/14/1 303/10/1 304/9/1
f 305/13/1 306/14/1 307/10/1 308/9/1
f 309/13/1 310/14/1 311/10/1 312/9/1
f 313/13/1 314/14/1 315/10/1 316/9/1
f 317/13/1 318/14/1 319/10/1 320/9/1
f 321/13/1 322/14/1 323/10/1 324/9/1
f 325/13/1 326/14/1 327/10/1 328/9/1
f 329/13/1 330/14/1 331/10/1 332/9/1
f 333/13/1 334/14/1 335/10/1 336/9/1
f 337/13/1 338/14/1 339/10/1 340/9/1
f 341/13/1 342/14/1 343/10/1 344/9/1
f 345/13/1 346/14/1 347/10/1 348/9/1
f 349/13/1 350/14/1 351/10/1 352/9/1
f 353/13/1 354/14/1 355/10/1 356/9/1
f 357/13/1 358/14/1 359/10/1 360/9/1
f 361/13/1 362/14/1 363/10/1 364/9/1
f 365/14/1 366/21/1 367/19/1 368/10/1
f 369/15/1 370/16/1 371/12/1 372/11/1
f 373/17/1 374/18/1 375/14/1 376/13/1
f 377/17/1 378/18/1 379/14/1 380/13/1
f 381/17/1 382/18/1 383/14/1 384/13/1
f 385/17/1 386/18/1 387/14/1 388/13/1
f 389/17/1 390/18/1 391/14/1 392/13/1
f 393/17/1 394/18/1 395/14/1 396/13/1
f 397/17/1 398/18/1 399/14/1 400/13/1
f 401/17/1 402/18/1 403/14/1 404/13/1
f 405/17/1 406/18/1 407/14/1 408/13/1
f 409/17/1 410/18/1 411/14/1 412/13/1
f 413/17/1 414/18/1 415/14/1 416/13/1
f 417/17/1 418/18/1 419/14/1 420/13/1
f 421/17/1 422/18/1 423/14/1 424/13/1
f 425/17/1 426/18/1 427/14/1 428/13/1
f 429/17/1 430/18/1 431/14/1 432/13/1
f 433/17/1 434/18/1 435/14/1 436/13/1
f 437/17/1 438/18/1 439/14/1 440/13/1
f 441/17/1 442/18/1 443/14/1 444/13/1
f 445/17/1 446/18/1 447/14/1 448/13/1
f 449/17/1 450/18/1 451/14/1 452/13/1
f 453/17/1 454/18/1 455/14/1 456/13/1
f 457/17/1 458/18/1 459/14/1 460/13/1
f 461/17/1 462/18/1 463/14/1 464/13/1
f 465/17/1 466/18/1 467/14/1 468/13/1
f 469/17/1 470/18/1 471/14/1 472/13/1
f 473/17/1 474/18/1 475/14/1 476/13/1
f 477/17/1 478/18/1 479/14/1 480/13/1
f 481/17/1 482/18/1 483/14/1 484/13/1
f 485/17/1 486/18/1 487/14/1 488/13/1
f 489/17/1 490/18/1 491/14/1 492/13/1
f 493/17/1 494/18/1 495/14/1 496/13/1
f 497/17/1 498/18/1 499/14/1 500/13/1
f 501/17/1 502/18/1 503/14/1 504/13/1
f 505/17/1 506/18/1 507/14/1 508/13/1
f 509/17/1 510/18/1 511/14/1 512/13/1
f 513/17/1 514/18/1 515/14/1 516/13/1
f 517/18/1 518/22/1 519/21/1 520/14/1
f 521/5/1 522/6/1 523/7/1 524/8/1
f 525/9/1 526/10/1 527/2/1 528/1/1
f 529/10/1 530/19/1 531/20/1 532/2/1
f 533/11/1 534/12/1 535/6/1 536/5/1
f 537/13/1 538/14/1 539/10/1 540/9/1
f 541/14/1 542/21/1 543/19/1 544/10/1
f 545/15/1 546/16/1 547/12/1 548/11/1
f 549/17/1 550/18/1 551/14/1 552/13/1
f 553/18/1 554/22/1 555/21/1 556/14/1
f 557/2/1 558/20/1 559/23/1 560/3/1
f 561/2/1 562/20/1 563/23/1 564/3/1
f 565/2/1 566/20/1 567/23/1 568/3/1
f 569/2/1 570/20/1 571/23/1 572/3/1
f 573/2/1 574/20/1 575/23/1 576/3/1
f 577/2/1 578/20/1 579/23/1 580/3/1
f 581/2/1 582/20/1 583/23/1 584/3/1
f 585/2/1 586/20/1 587/23/1 588/3/1
f 589/8/1 590/7/1 591/24/1 592/25/1
f 593/4/1 594/3/1 595/26/1 596/27/1
f 597/3/1 598/23/1 599/28/1 600/26/1
f 601/2/1 602/20/1 603/23/1 604/3/1
f 605/2/1 606/20/1 607/23/1 608/3/1
f 609/2/1 610/20/1 611/23/1 612/3/1
f 613/2/1 614/20/1 615/23/1 616/3/1
f 617/2/1 618/20/1 619/23/1 620/3/1
f 621/2/1 622/20/1 623/23/1 624/3/1
f 625/2/1 626/20/1 627/23/1 628/3/1
f 629/8/1 630/7/1 631/24/1 632/25/1
f 633/4/1 634/3/1 635/26/1 636/27/1
f 637/4/1 638/3/1 639/26/1 640/27/1
f 641/4/1 642/3/1 643/26/1 644/27/1
f 645/4/1 646/3/1 647/26/1 648/27/1
f 649/4/1 650/3/1 651/26/1 652/27/1
f 653/4/1 654/3/1 655/26/1 656/27/1
f 657/4/1 658/3/1 659/26/1 660/27/1
f 661/4/1 662/3/1 663/26/1 664/27/1
f 665/4/1 666/3/1 667/26/1 668/27/1
f 669/4/1 670/3/1 671/26/1 672/27/1
f 673/4/1 674/3/1 675/26/1 676/27/1
f 677/4/1 678/3/1 679/26/1 680/27/1
f 681/4/1 682/3/1 683/26/1 684/27/1
f 685/4/1 686/3/1 687/26/1 688/27/1
f 689/4/1 690/3/1 691/26/1 692/27/1
f 693/4/1 694/3/1 695/26/1 696/27/1
f 697/4/1 698/3/1 699/26/1 700/27/1
f 701/4/1 702/3/1 703/26/1 704/27/1
f 705/4/1 706/3/1 707/26/1 708/27/1
f 709/4/1 710/3/1 711/26/1 712/27/1
f 713/4/1 714/3/1 715/26/1 716/27/1
f 717/4/1 718/3/1 719/26/1 720/27/1
f 721/4/1 722/3/1 723/26/1 724/27/1
f 725/4/1 726/3/1 727/26/1 728/27/1
f 729/4/1 730/3/1 731/26/1 732/27/1
f 733/4/1 734/3/1 735/26/1 736/27/1
f 737/4/1 738/3/1 739/26/1 740/27/1
f 741/4/1 742/3/1 743/26/1 744/27/1
f 745/4/1 746/3/1 747/26/1 748/27/1
f 749/4/1 750/3/1 751/26/1 752/27/1
f 753/4/1 754/3/1 755/26/1 756/27/1
f 757/4/1 758/3/1 759/26/1 760/27/1
f 761/4/1 762/3/1 763/26/1 764/27/1
f 765/4/1 766/3/1 767/26/1 768/27/1
f 769/4/1 770/3/1 771/26/1 772/27/1
f 773/4/1 774/3/1 775/26/1 776/27/1

