# Tiled2Unity generated file. Do not modify by hand.
# Wavefront file for 'Grassland---Lanes_mesh_0006.obj'

# Vertices (Count = 928)
v -64 -32 0
v -96 -32 0
v -96 0 0
v -64 0 0
v -96 -32 0
v -128 -32 0
v -128 0 0
v -96 0 0
v -128 -32 0
v -160 -32 0
v -160 0 0
v -128 0 0
v -160 -32 0
v -192 -32 0
v -192 0 0
v -160 0 0
v -192 -32 0
v -224 -32 0
v -224 0 0
v -192 0 0
v -224 -32 0
v -256 -32 0
v -256 0 0
v -224 0 0
v -256 -32 0
v -288 -32 0
v -288 0 0
v -256 0 0
v -288 -32 0
v -320 -32 0
v -320 0 0
v -288 0 0
v -320 -32 0
v -352 -32 0
v -352 0 0
v -320 0 0
v -352 -32 0
v -384 -32 0
v -384 0 0
v -352 0 0
v -384 -32 0
v -416 -32 0
v -416 0 0
v -384 0 0
v -416 -32 0
v -448 -32 0
v -448 0 0
v -416 0 0
v -448 -32 0
v -480 -32 0
v -480 0 0
v -448 0 0
v -480 -32 0
v -512 -32 0
v -512 0 0
v -480 0 0
v -512 -32 0
v -544 -32 0
v -544 0 0
v -512 0 0
v -544 -32 0
v -576 -32 0
v -576 0 0
v -544 0 0
v -576 -32 0
v -608 -32 0
v -608 0 0
v -576 0 0
v -608 -32 0
v -640 -32 0
v -640 0 0
v -608 0 0
v -640 -32 0
v -672 -32 0
v -672 0 0
v -640 0 0
v -672 -32 0
v -704 -32 0
v -704 0 0
v -672 0 0
v -704 -32 0
v -736 -32 0
v -736 0 0
v -704 0 0
v -736 -32 0
v -768 -32 0
v -768 0 0
v -736 0 0
v -768 -32 0
v -800 -32 0
v -800 0 0
v -768 0 0
v -800 -32 0
v -832 -32 0
v -832 0 0
v -800 0 0
v -832 -32 0
v -864 -32 0
v -864 0 0
v -832 0 0
v -864 -32 0
v -896 -32 0
v -896 0 0
v -864 0 0
v -896 -32 0
v -928 -32 0
v -928 0 0
v -896 0 0
v -928 -32 0
v -960 -32 0
v -960 0 0
v -928 0 0
v -960 -32 0
v -992 -32 0
v -992 0 0
v -960 0 0
v -992 -32 0
v -1024 -32 0
v -1024 0 0
v -992 0 0
v -1024 -32 0
v -1056 -32 0
v -1056 0 0
v -1024 0 0
v -1056 -32 0
v -1088 -32 0
v -1088 0 0
v -1056 0 0
v -1088 -32 0
v -1120 -32 0
v -1120 0 0
v -1088 0 0
v -1120 -32 0
v -1152 -32 0
v -1152 0 0
v -1120 0 0
v -1152 -32 0
v -1184 -32 0
v -1184 0 0
v -1152 0 0
v -1184 -32 0
v -1216 -32 0
v -1216 0 0
v -1184 0 0
v -1216 -32 0
v -1248 -32 0
v -1248 0 0
v -1216 0 0
v -1248 -32 0
v -1280 -32 0
v -1280 0 0
v -1248 0 0
v -1280 -32 0
v -1312 -32 0
v -1312 0 0
v -1280 0 0
v -1312 -32 0
v -1344 -32 0
v -1344 0 0
v -1312 0 0
v -1344 -32 0
v -1376 -32 0
v -1376 0 0
v -1344 0 0
v -1376 -32 0
v -1408 -32 0
v -1408 0 0
v -1376 0 0
v -1408 -32 0
v -1440 -32 0
v -1440 0 0
v -1408 0 0
v -1440 -32 0
v -1472 -32 0
v -1472 0 0
v -1440 0 0
v -1472 -32 0
v -1504 -32 0
v -1504 0 0
v -1472 0 0
v -1504 -32 0
v -1536 -32 0
v -1536 0 0
v -1504 0 0
v -1536 -32 0
v -1568 -32 0
v -1568 0 0
v -1536 0 0
v -1568 -32 0
v -1600 -32 0
v -1600 0 0
v -1568 0 0
v -64 -64 0
v -96 -64 0
v -96 -32 0
v -64 -32 0
v -96 -64 0
v -128 -64 0
v -128 -32 0
v -96 -32 0
v -128 -64 0
v -160 -64 0
v -160 -32 0
v -128 -32 0
v -160 -64 0
v -192 -64 0
v -192 -32 0
v -160 -32 0
v -192 -64 0
v -224 -64 0
v -224 -32 0
v -192 -32 0
v -224 -64 0
v -256 -64 0
v -256 -32 0
v -224 -32 0
v -256 -64 0
v -288 -64 0
v -288 -32 0
v -256 -32 0
v -288 -64 0
v -320 -64 0
v -320 -32 0
v -288 -32 0
v -320 -64 0
v -352 -64 0
v -352 -32 0
v -320 -32 0
v -352 -64 0
v -384 -64 0
v -384 -32 0
v -352 -32 0
v -384 -64 0
v -416 -64 0
v -416 -32 0
v -384 -32 0
v -416 -64 0
v -448 -64 0
v -448 -32 0
v -416 -32 0
v -448 -64 0
v -480 -64 0
v -480 -32 0
v -448 -32 0
v -480 -64 0
v -512 -64 0
v -512 -32 0
v -480 -32 0
v -512 -64 0
v -544 -64 0
v -544 -32 0
v -512 -32 0
v -544 -64 0
v -576 -64 0
v -576 -32 0
v -544 -32 0
v -576 -64 0
v -608 -64 0
v -608 -32 0
v -576 -32 0
v -608 -64 0
v -640 -64 0
v -640 -32 0
v -608 -32 0
v -640 -64 0
v -672 -64 0
v -672 -32 0
v -640 -32 0
v -672 -64 0
v -704 -64 0
v -704 -32 0
v -672 -32 0
v -704 -64 0
v -736 -64 0
v -736 -32 0
v -704 -32 0
v -736 -64 0
v -768 -64 0
v -768 -32 0
v -736 -32 0
v -768 -64 0
v -800 -64 0
v -800 -32 0
v -768 -32 0
v -800 -64 0
v -832 -64 0
v -832 -32 0
v -800 -32 0
v -832 -64 0
v -864 -64 0
v -864 -32 0
v -832 -32 0
v -864 -64 0
v -896 -64 0
v -896 -32 0
v -864 -32 0
v -896 -64 0
v -928 -64 0
v -928 -32 0
v -896 -32 0
v -928 -64 0
v -960 -64 0
v -960 -32 0
v -928 -32 0
v -960 -64 0
v -992 -64 0
v -992 -32 0
v -960 -32 0
v -992 -64 0
v -1024 -64 0
v -1024 -32 0
v -992 -32 0
v -1024 -64 0
v -1056 -64 0
v -1056 -32 0
v -1024 -32 0
v -1056 -64 0
v -1088 -64 0
v -1088 -32 0
v -1056 -32 0
v -1088 -64 0
v -1120 -64 0
v -1120 -32 0
v -1088 -32 0
v -1120 -64 0
v -1152 -64 0
v -1152 -32 0
v -1120 -32 0
v -1152 -64 0
v -1184 -64 0
v -1184 -32 0
v -1152 -32 0
v -1184 -64 0
v -1216 -64 0
v -1216 -32 0
v -1184 -32 0
v -1216 -64 0
v -1248 -64 0
v -1248 -32 0
v -1216 -32 0
v -1248 -64 0
v -1280 -64 0
v -1280 -32 0
v -1248 -32 0
v -1280 -64 0
v -1312 -64 0
v -1312 -32 0
v -1280 -32 0
v -1312 -64 0
v -1344 -64 0
v -1344 -32 0
v -1312 -32 0
v -1344 -64 0
v -1376 -64 0
v -1376 -32 0
v -1344 -32 0
v -1376 -64 0
v -1408 -64 0
v -1408 -32 0
v -1376 -32 0
v -1408 -64 0
v -1440 -64 0
v -1440 -32 0
v -1408 -32 0
v -1440 -64 0
v -1472 -64 0
v -1472 -32 0
v -1440 -32 0
v -1472 -64 0
v -1504 -64 0
v -1504 -32 0
v -1472 -32 0
v -1504 -64 0
v -1536 -64 0
v -1536 -32 0
v -1504 -32 0
v -1536 -64 0
v -1568 -64 0
v -1568 -32 0
v -1536 -32 0
v -1568 -64 0
v -1600 -64 0
v -1600 -32 0
v -1568 -32 0
v -96 -96 0
v -128 -96 0
v -128 -64 0
v -96 -64 0
v -128 -96 0
v -160 -96 0
v -160 -64 0
v -128 -64 0
v -160 -96 0
v -192 -96 0
v -192 -64 0
v -160 -64 0
v -192 -96 0
v -224 -96 0
v -224 -64 0
v -192 -64 0
v -224 -96 0
v -256 -96 0
v -256 -64 0
v -224 -64 0
v -256 -96 0
v -288 -96 0
v -288 -64 0
v -256 -64 0
v -288 -96 0
v -320 -96 0
v -320 -64 0
v -288 -64 0
v -320 -96 0
v -352 -96 0
v -352 -64 0
v -320 -64 0
v -352 -96 0
v -384 -96 0
v -384 -64 0
v -352 -64 0
v -384 -96 0
v -416 -96 0
v -416 -64 0
v -384 -64 0
v -416 -96 0
v -448 -96 0
v -448 -64 0
v -416 -64 0
v -448 -96 0
v -480 -96 0
v -480 -64 0
v -448 -64 0
v -480 -96 0
v -512 -96 0
v -512 -64 0
v -480 -64 0
v -512 -96 0
v -544 -96 0
v -544 -64 0
v -512 -64 0
v -544 -96 0
v -576 -96 0
v -576 -64 0
v -544 -64 0
v -576 -96 0
v -608 -96 0
v -608 -64 0
v -576 -64 0
v -608 -96 0
v -640 -96 0
v -640 -64 0
v -608 -64 0
v -640 -96 0
v -672 -96 0
v -672 -64 0
v -640 -64 0
v -672 -96 0
v -704 -96 0
v -704 -64 0
v -672 -64 0
v -704 -96 0
v -736 -96 0
v -736 -64 0
v -704 -64 0
v -736 -96 0
v -768 -96 0
v -768 -64 0
v -736 -64 0
v -768 -96 0
v -800 -96 0
v -800 -64 0
v -768 -64 0
v -800 -96 0
v -832 -96 0
v -832 -64 0
v -800 -64 0
v -832 -96 0
v -864 -96 0
v -864 -64 0
v -832 -64 0
v -864 -96 0
v -896 -96 0
v -896 -64 0
v -864 -64 0
v -896 -96 0
v -928 -96 0
v -928 -64 0
v -896 -64 0
v -928 -96 0
v -960 -96 0
v -960 -64 0
v -928 -64 0
v -960 -96 0
v -992 -96 0
v -992 -64 0
v -960 -64 0
v -992 -96 0
v -1024 -96 0
v -1024 -64 0
v -992 -64 0
v -1024 -96 0
v -1056 -96 0
v -1056 -64 0
v -1024 -64 0
v -1056 -96 0
v -1088 -96 0
v -1088 -64 0
v -1056 -64 0
v -1088 -96 0
v -1120 -96 0
v -1120 -64 0
v -1088 -64 0
v -1120 -96 0
v -1152 -96 0
v -1152 -64 0
v -1120 -64 0
v -1152 -96 0
v -1184 -96 0
v -1184 -64 0
v -1152 -64 0
v -1184 -96 0
v -1216 -96 0
v -1216 -64 0
v -1184 -64 0
v -1216 -96 0
v -1248 -96 0
v -1248 -64 0
v -1216 -64 0
v -1248 -96 0
v -1280 -96 0
v -1280 -64 0
v -1248 -64 0
v -1280 -96 0
v -1312 -96 0
v -1312 -64 0
v -1280 -64 0
v -1312 -96 0
v -1344 -96 0
v -1344 -64 0
v -1312 -64 0
v -1344 -96 0
v -1376 -96 0
v -1376 -64 0
v -1344 -64 0
v -1376 -96 0
v -1408 -96 0
v -1408 -64 0
v -1376 -64 0
v -1408 -96 0
v -1440 -96 0
v -1440 -64 0
v -1408 -64 0
v -1440 -96 0
v -1472 -96 0
v -1472 -64 0
v -1440 -64 0
v -1472 -96 0
v -1504 -96 0
v -1504 -64 0
v -1472 -64 0
v -1504 -96 0
v -1536 -96 0
v -1536 -64 0
v -1504 -64 0
v -96 -128 0
v -128 -128 0
v -128 -96 0
v -96 -96 0
v -128 -128 0
v -160 -128 0
v -160 -96 0
v -128 -96 0
v -160 -128 0
v -192 -128 0
v -192 -96 0
v -160 -96 0
v -192 -128 0
v -224 -128 0
v -224 -96 0
v -192 -96 0
v -224 -128 0
v -256 -128 0
v -256 -96 0
v -224 -96 0
v -256 -128 0
v -288 -128 0
v -288 -96 0
v -256 -96 0
v -288 -128 0
v -320 -128 0
v -320 -96 0
v -288 -96 0
v -320 -128 0
v -352 -128 0
v -352 -96 0
v -320 -96 0
v -352 -128 0
v -384 -128 0
v -384 -96 0
v -352 -96 0
v -384 -128 0
v -416 -128 0
v -416 -96 0
v -384 -96 0
v -416 -128 0
v -448 -128 0
v -448 -96 0
v -416 -96 0
v -448 -128 0
v -480 -128 0
v -480 -96 0
v -448 -96 0
v -480 -128 0
v -512 -128 0
v -512 -96 0
v -480 -96 0
v -512 -128 0
v -544 -128 0
v -544 -96 0
v -512 -96 0
v -544 -128 0
v -576 -128 0
v -576 -96 0
v -544 -96 0
v -576 -128 0
v -608 -128 0
v -608 -96 0
v -576 -96 0
v -608 -128 0
v -640 -128 0
v -640 -96 0
v -608 -96 0
v -640 -128 0
v -672 -128 0
v -672 -96 0
v -640 -96 0
v -672 -128 0
v -704 -128 0
v -704 -96 0
v -672 -96 0
v -704 -128 0
v -736 -128 0
v -736 -96 0
v -704 -96 0
v -736 -128 0
v -768 -128 0
v -768 -96 0
v -736 -96 0
v -768 -128 0
v -800 -128 0
v -800 -96 0
v -768 -96 0
v -800 -128 0
v -832 -128 0
v -832 -96 0
v -800 -96 0
v -832 -128 0
v -864 -128 0
v -864 -96 0
v -832 -96 0
v -864 -128 0
v -896 -128 0
v -896 -96 0
v -864 -96 0
v -896 -128 0
v -928 -128 0
v -928 -96 0
v -896 -96 0
v -928 -128 0
v -960 -128 0
v -960 -96 0
v -928 -96 0
v -960 -128 0
v -992 -128 0
v -992 -96 0
v -960 -96 0
v -992 -128 0
v -1024 -128 0
v -1024 -96 0
v -992 -96 0
v -1024 -128 0
v -1056 -128 0
v -1056 -96 0
v -1024 -96 0
v -1056 -128 0
v -1088 -128 0
v -1088 -96 0
v -1056 -96 0
v -1088 -128 0
v -1120 -128 0
v -1120 -96 0
v -1088 -96 0
v -1120 -128 0
v -1152 -128 0
v -1152 -96 0
v -1120 -96 0
v -1152 -128 0
v -1184 -128 0
v -1184 -96 0
v -1152 -96 0
v -1184 -128 0
v -1216 -128 0
v -1216 -96 0
v -1184 -96 0
v -1216 -128 0
v -1248 -128 0
v -1248 -96 0
v -1216 -96 0
v -1248 -128 0
v -1280 -128 0
v -1280 -96 0
v -1248 -96 0
v -1280 -128 0
v -1312 -128 0
v -1312 -96 0
v -1280 -96 0
v -1312 -128 0
v -1344 -128 0
v -1344 -96 0
v -1312 -96 0
v -1344 -128 0
v -1376 -128 0
v -1376 -96 0
v -1344 -96 0
v -1376 -128 0
v -1408 -128 0
v -1408 -96 0
v -1376 -96 0
v -1408 -128 0
v -1440 -128 0
v -1440 -96 0
v -1408 -96 0
v -288 -160 0
v -320 -160 0
v -320 -128 0
v -288 -128 0
v -320 -160 0
v -352 -160 0
v -352 -128 0
v -320 -128 0
v -352 -160 0
v -384 -160 0
v -384 -128 0
v -352 -128 0
v -384 -160 0
v -416 -160 0
v -416 -128 0
v -384 -128 0
v -416 -160 0
v -448 -160 0
v -448 -128 0
v -416 -128 0
v -448 -160 0
v -480 -160 0
v -480 -128 0
v -448 -128 0
v -480 -160 0
v -512 -160 0
v -512 -128 0
v -480 -128 0
v -512 -160 0
v -544 -160 0
v -544 -128 0
v -512 -128 0
v -544 -160 0
v -576 -160 0
v -576 -128 0
v -544 -128 0
v -576 -160 0
v -608 -160 0
v -608 -128 0
v -576 -128 0
v -608 -160 0
v -640 -160 0
v -640 -128 0
v -608 -128 0
v -640 -160 0
v -672 -160 0
v -672 -128 0
v -640 -128 0
v -672 -160 0
v -704 -160 0
v -704 -128 0
v -672 -128 0
v -704 -160 0
v -736 -160 0
v -736 -128 0
v -704 -128 0
v -736 -160 0
v -768 -160 0
v -768 -128 0
v -736 -128 0
v -768 -160 0
v -800 -160 0
v -800 -128 0
v -768 -128 0
v -800 -160 0
v -832 -160 0
v -832 -128 0
v -800 -128 0
v -832 -160 0
v -864 -160 0
v -864 -128 0
v -832 -128 0
v -864 -160 0
v -896 -160 0
v -896 -128 0
v -864 -128 0
v -896 -160 0
v -928 -160 0
v -928 -128 0
v -896 -128 0
v -928 -160 0
v -960 -160 0
v -960 -128 0
v -928 -128 0
v -960 -160 0
v -992 -160 0
v -992 -128 0
v -960 -128 0
v -992 -160 0
v -1024 -160 0
v -1024 -128 0
v -992 -128 0
v -1024 -160 0
v -1056 -160 0
v -1056 -128 0
v -1024 -128 0
v -1056 -160 0
v -1088 -160 0
v -1088 -128 0
v -1056 -128 0
v -1088 -160 0
v -1120 -160 0
v -1120 -128 0
v -1088 -128 0
v -1120 -160 0
v -1152 -160 0
v -1152 -128 0
v -1120 -128 0
v -1152 -160 0
v -1184 -160 0
v -1184 -128 0
v -1152 -128 0
v -1184 -160 0
v -1216 -160 0
v -1216 -128 0
v -1184 -128 0
v -1216 -160 0
v -1248 -160 0
v -1248 -128 0
v -1216 -128 0
v -1248 -160 0
v -1280 -160 0
v -1280 -128 0
v -1248 -128 0
v -1280 -160 0
v -1312 -160 0
v -1312 -128 0
v -1280 -128 0
v -1312 -160 0
v -1344 -160 0
v -1344 -128 0
v -1312 -128 0
v -1344 -160 0
v -1376 -160 0
v -1376 -128 0
v -1344 -128 0
v -864 -192 0
v -896 -192 0
v -896 -160 0
v -864 -160 0
v -896 -192 0
v -928 -192 0
v -928 -160 0
v -896 -160 0
v -928 -192 0
v -960 -192 0
v -960 -160 0
v -928 -160 0
v -960 -192 0
v -992 -192 0
v -992 -160 0
v -960 -160 0
v -992 -192 0
v -1024 -192 0
v -1024 -160 0
v -992 -160 0
v -1024 -192 0
v -1056 -192 0
v -1056 -160 0
v -1024 -160 0
v -1056 -192 0
v -1088 -192 0
v -1088 -160 0
v -1056 -160 0
v -1088 -192 0
v -1120 -192 0
v -1120 -160 0
v -1088 -160 0
v -1120 -192 0
v -1152 -192 0
v -1152 -160 0
v -1120 -160 0
v -1152 -192 0
v -1184 -192 0
v -1184 -160 0
v -1152 -160 0
v -1184 -192 0
v -1216 -192 0
v -1216 -160 0
v -1184 -160 0
v -1216 -192 0
v -1248 -192 0
v -1248 -160 0
v -1216 -160 0
v -1248 -192 0
v -1280 -192 0
v -1280 -160 0
v -1248 -160 0
v -1280 -192 0
v -1312 -192 0
v -1312 -160 0
v -1280 -160 0
v -1312 -192 0
v -1344 -192 0
v -1344 -160 0
v -1312 -160 0

# Texture cooridinates (Count = 18)
vt 0.6666667 0.5854923
vt 0.7222222 0.5854923
vt 0.7222222 0.6683938
vt 0.6666667 0.6683938
vt 0.7777778 0.5854923
vt 0.7777778 0.6683938
vt 0.8333333 0.5854923
vt 0.8333333 0.6683938
vt 0.6666667 0.5025907
vt 0.7222222 0.5025907
vt 0.7777778 0.8341969
vt 0.8333333 0.8341969
vt 0.8333333 0.9170985
vt 0.7777778 0.9170985
vt 0.7222222 0.8341969
vt 0.7222222 0.9170985
vt 0.7777778 0.5025907
vt 0.8333333 0.5025907

# Normal
vn 0 0 -1

# Mesh description
g Grassland---Lanes_mesh_0006

# Faces
f 1/1/1 2/2/1 3/3/1 4/4/1
f 5/2/1 6/5/1 7/6/1 8/3/1
f 9/2/1 10/5/1 11/6/1 12/3/1
f 13/2/1 14/5/1 15/6/1 16/3/1
f 17/2/1 18/5/1 19/6/1 20/3/1
f 21/2/1 22/5/1 23/6/1 24/3/1
f 25/2/1 26/5/1 27/6/1 28/3/1
f 29/2/1 30/5/1 31/6/1 32/3/1
f 33/2/1 34/5/1 35/6/1 36/3/1
f 37/2/1 38/5/1 39/6/1 40/3/1
f 41/2/1 42/5/1 43/6/1 44/3/1
f 45/2/1 46/5/1 47/6/1 48/3/1
f 49/2/1 50/5/1 51/6/1 52/3/1
f 53/2/1 54/5/1 55/6/1 56/3/1
f 57/2/1 58/5/1 59/6/1 60/3/1
f 61/2/1 62/5/1 63/6/1 64/3/1
f 65/2/1 66/5/1 67/6/1 68/3/1
f 69/2/1 70/5/1 71/6/1 72/3/1
f 73/2/1 74/5/1 75/6/1 76/3/1
f 77/2/1 78/5/1 79/6/1 80/3/1
f 81/2/1 82/5/1 83/6/1 84/3/1
f 85/2/1 86/5/1 87/6/1 88/3/1
f 89/2/1 90/5/1 91/6/1 92/3/1
f 93/2/1 94/5/1 95/6/1 96/3/1
f 97/2/1 98/5/1 99/6/1 100/3/1
f 101/2/1 102/5/1 103/6/1 104/3/1
f 105/2/1 106/5/1 107/6/1 108/3/1
f 109/2/1 110/5/1 111/6/1 112/3/1
f 113/2/1 114/5/1 115/6/1 116/3/1
f 117/2/1 118/5/1 119/6/1 120/3/1
f 121/2/1 122/5/1 123/6/1 124/3/1
f 125/2/1 126/5/1 127/6/1 128/3/1
f 129/2/1 130/5/1 131/6/1 132/3/1
f 133/2/1 134/5/1 135/6/1 136/3/1
f 137/2/1 138/5/1 139/6/1 140/3/1
f 141/2/1 142/5/1 143/6/1 144/3/1
f 145/2/1 146/5/1 147/6/1 148/3/1
f 149/2/1 150/5/1 151/6/1 152/3/1
f 153/2/1 154/5/1 155/6/1 156/3/1
f 157/2/1 158/5/1 159/6/1 160/3/1
f 161/2/1 162/5/1 163/6/1 164/3/1
f 165/2/1 166/5/1 167/6/1 168/3/1
f 169/2/1 170/5/1 171/6/1 172/3/1
f 173/2/1 174/5/1 175/6/1 176/3/1
f 177/2/1 178/5/1 179/6/1 180/3/1
f 181/2/1 182/5/1 183/6/1 184/3/1
f 185/2/1 186/5/1 187/6/1 188/3/1
f 189/5/1 190/7/1 191/8/1 192/6/1
f 193/9/1 194/10/1 195/2/1 196/1/1
f 197/11/1 198/12/1 199/13/1 200/14/1
f 201/2/1 202/5/1 203/6/1 204/3/1
f 205/2/1 206/5/1 207/6/1 208/3/1
f 209/2/1 210/5/1 211/6/1 212/3/1
f 213/2/1 214/5/1 215/6/1 216/3/1
f 217/2/1 218/5/1 219/6/1 220/3/1
f 221/2/1 222/5/1 223/6/1 224/3/1
f 225/2/1 226/5/1 227/6/1 228/3/1
f 229/2/1 230/5/1 231/6/1 232/3/1
f 233/2/1 234/5/1 235/6/1 236/3/1
f 237/2/1 238/5/1 239/6/1 240/3/1
f 241/2/1 242/5/1 243/6/1 244/3/1
f 245/2/1 246/5/1 247/6/1 248/3/1
f 249/2/1 250/5/1 251/6/1 252/3/1
f 253/2/1 254/5/1 255/6/1 256/3/1
f 257/2/1 258/5/1 259/6/1 260/3/1
f 261/2/1 262/5/1 263/6/1 264/3/1
f 265/2/1 266/5/1 267/6/1 268/3/1
f 269/2/1 270/5/1 271/6/1 272/3/1
f 273/2/1 274/5/1 275/6/1 276/3/1
f 277/2/1 278/5/1 279/6/1 280/3/1
f 281/2/1 282/5/1 283/6/1 284/3/1
f 285/2/1 286/5/1 287/6/1 288/3/1
f 289/2/1 290/5/1 291/6/1 292/3/1
f 293/2/1 294/5/1 295/6/1 296/3/1
f 297/2/1 298/5/1 299/6/1 300/3/1
f 301/2/1 302/5/1 303/6/1 304/3/1
f 305/2/1 306/5/1 307/6/1 308/3/1
f 309/2/1 310/5/1 311/6/1 312/3/1
f 313/2/1 314/5/1 315/6/1 316/3/1
f 317/2/1 318/5/1 319/6/1 320/3/1
f 321/2/1 322/5/1 323/6/1 324/3/1
f 325/2/1 326/5/1 327/6/1 328/3/1
f 329/2/1 330/5/1 331/6/1 332/3/1
f 333/2/1 334/5/1 335/6/1 336/3/1
f 337/2/1 338/5/1 339/6/1 340/3/1
f 341/2/1 342/5/1 343/6/1 344/3/1
f 345/2/1 346/5/1 347/6/1 348/3/1
f 349/2/1 350/5/1 351/6/1 352/3/1
f 353/2/1 354/5/1 355/6/1 356/3/1
f 357/2/1 358/5/1 359/6/1 360/3/1
f 361/2/1 362/5/1 363/6/1 364/3/1
f 365/2/1 366/5/1 367/6/1 368/3/1
f 369/2/1 370/5/1 371/6/1 372/3/1
f 373/15/1 374/11/1 375/14/1 376/16/1
f 377/10/1 378/17/1 379/5/1 380/2/1
f 381/17/1 382/18/1 383/7/1 384/5/1
f 385/1/1 386/2/1 387/3/1 388/4/1
f 389/2/1 390/5/1 391/6/1 392/3/1
f 393/2/1 394/5/1 395/6/1 396/3/1
f 397/2/1 398/5/1 399/6/1 400/3/1
f 401/2/1 402/5/1 403/6/1 404/3/1
f 405/2/1 406/5/1 407/6/1 408/3/1
f 409/2/1 410/5/1 411/6/1 412/3/1
f 413/2/1 414/5/1 415/6/1 416/3/1
f 417/2/1 418/5/1 419/6/1 420/3/1
f 421/2/1 422/5/1 423/6/1 424/3/1
f 425/2/1 426/5/1 427/6/1 428/3/1
f 429/2/1 430/5/1 431/6/1 432/3/1
f 433/2/1 434/5/1 435/6/1 436/3/1
f 437/2/1 438/5/1 439/6/1 440/3/1
f 441/2/1 442/5/1 443/6/1 444/3/1
f 445/2/1 446/5/1 447/6/1 448/3/1
f 449/2/1 450/5/1 451/6/1 452/3/1
f 453/2/1 454/5/1 455/6/1 456/3/1
f 457/2/1 458/5/1 459/6/1 460/3/1
f 461/2/1 462/5/1 463/6/1 464/3/1
f 465/2/1 466/5/1 467/6/1 468/3/1
f 469/2/1 470/5/1 471/6/1 472/3/1
f 473/2/1 474/5/1 475/6/1 476/3/1
f 477/2/1 478/5/1 479/6/1 480/3/1
f 481/2/1 482/5/1 483/6/1 484/3/1
f 485/2/1 486/5/1 487/6/1 488/3/1
f 489/2/1 490/5/1 491/6/1 492/3/1
f 493/2/1 494/5/1 495/6/1 496/3/1
f 497/2/1 498/5/1 499/6/1 500/3/1
f 501/2/1 502/5/1 503/6/1 504/3/1
f 505/2/1 506/5/1 507/6/1 508/3/1
f 509/2/1 510/5/1 511/6/1 512/3/1
f 513/2/1 514/5/1 515/6/1 516/3/1
f 517/2/1 518/5/1 519/6/1 520/3/1
f 521/2/1 522/5/1 523/6/1 524/3/1
f 525/2/1 526/5/1 527/6/1 528/3/1
f 529/2/1 530/5/1 531/6/1 532/3/1
f 533/2/1 534/5/1 535/6/1 536/3/1
f 537/2/1 538/5/1 539/6/1 540/3/1
f 541/2/1 542/5/1 543/6/1 544/3/1
f 545/2/1 546/5/1 547/6/1 548/3/1
f 549/15/1 550/11/1 551/14/1 552/16/1
f 553/10/1 554/17/1 555/5/1 556/2/1
f 557/10/1 558/17/1 559/5/1 560/2/1
f 561/17/1 562/18/1 563/7/1 564/5/1
f 565/9/1 566/10/1 567/2/1 568/1/1
f 569/10/1 570/17/1 571/5/1 572/2/1
f 573/10/1 574/17/1 575/5/1 576/2/1
f 577/10/1 578/17/1 579/5/1 580/2/1
f 581/10/1 582/17/1 583/5/1 584/2/1
f 585/10/1 586/17/1 587/5/1 588/2/1
f 589/11/1 590/12/1 591/13/1 592/14/1
f 593/2/1 594/5/1 595/6/1 596/3/1
f 597/2/1 598/5/1 599/6/1 600/3/1
f 601/2/1 602/5/1 603/6/1 604/3/1
f 605/2/1 606/5/1 607/6/1 608/3/1
f 609/2/1 610/5/1 611/6/1 612/3/1
f 613/2/1 614/5/1 615/6/1 616/3/1
f 617/2/1 618/5/1 619/6/1 620/3/1
f 621/2/1 622/5/1 623/6/1 624/3/1
f 625/2/1 626/5/1 627/6/1 628/3/1
f 629/2/1 630/5/1 631/6/1 632/3/1
f 633/2/1 634/5/1 635/6/1 636/3/1
f 637/2/1 638/5/1 639/6/1 640/3/1
f 641/2/1 642/5/1 643/6/1 644/3/1
f 645/2/1 646/5/1 647/6/1 648/3/1
f 649/2/1 650/5/1 651/6/1 652/3/1
f 653/2/1 654/5/1 655/6/1 656/3/1
f 657/2/1 658/5/1 659/6/1 660/3/1
f 661/2/1 662/5/1 663/6/1 664/3/1
f 665/2/1 666/5/1 667/6/1 668/3/1
f 669/2/1 670/5/1 671/6/1 672/3/1
f 673/2/1 674/5/1 675/6/1 676/3/1
f 677/2/1 678/5/1 679/6/1 680/3/1
f 681/2/1 682/5/1 683/6/1 684/3/1
f 685/2/1 686/5/1 687/6/1 688/3/1
f 689/2/1 690/5/1 691/6/1 692/3/1
f 693/2/1 694/5/1 695/6/1 696/3/1
f 697/2/1 698/5/1 699/6/1 700/3/1
f 701/2/1 702/5/1 703/6/1 704/3/1
f 705/2/1 706/5/1 707/6/1 708/3/1
f 709/2/1 710/5/1 711/6/1 712/3/1
f 713/2/1 714/5/1 715/6/1 716/3/1
f 717/2/1 718/5/1 719/6/1 720/3/1
f 721/15/1 722/11/1 723/14/1 724/16/1
f 725/10/1 726/17/1 727/5/1 728/2/1
f 729/17/1 730/18/1 731/7/1 732/5/1
f 733/9/1 734/10/1 735/2/1 736/1/1
f 737/10/1 738/17/1 739/5/1 740/2/1
f 741/10/1 742/17/1 743/5/1 744/2/1
f 745/10/1 746/17/1 747/5/1 748/2/1
f 749/10/1 750/17/1 751/5/1 752/2/1
f 753/10/1 754/17/1 755/5/1 756/2/1
f 757/10/1 758/17/1 759/5/1 760/2/1
f 761/10/1 762/17/1 763/5/1 764/2/1
f 765/10/1 766/17/1 767/5/1 768/2/1
f 769/10/1 770/17/1 771/5/1 772/2/1
f 773/10/1 774/17/1 775/5/1 776/2/1
f 777/10/1 778/17/1 779/5/1 780/2/1
f 781/10/1 782/17/1 783/5/1 784/2/1
f 785/10/1 786/17/1 787/5/1 788/2/1
f 789/10/1 790/17/1 791/5/1 792/2/1
f 793/10/1 794/17/1 795/5/1 796/2/1
f 797/10/1 798/17/1 799/5/1 800/2/1
f 801/10/1 802/17/1 803/5/1 804/2/1
f 805/11/1 806/12/1 807/13/1 808/14/1
f 809/2/1 810/5/1 811/6/1 812/3/1
f 813/2/1 814/5/1 815/6/1 816/3/1
f 817/2/1 818/5/1 819/6/1 820/3/1
f 821/2/1 822/5/1 823/6/1 824/3/1
f 825/2/1 826/5/1 827/6/1 828/3/1
f 829/2/1 830/5/1 831/6/1 832/3/1
f 833/2/1 834/5/1 835/6/1 836/3/1
f 837/2/1 838/5/1 839/6/1 840/3/1
f 841/2/1 842/5/1 843/6/1 844/3/1
f 845/2/1 846/5/1 847/6/1 848/3/1
f 849/2/1 850/5/1 851/6/1 852/3/1
f 853/2/1 854/5/1 855/6/1 856/3/1
f 857/2/1 858/5/1 859/6/1 860/3/1
f 861/15/1 862/11/1 863/14/1 864/16/1
f 865/17/1 866/18/1 867/7/1 868/5/1
f 869/9/1 870/10/1 871/2/1 872/1/1
f 873/10/1 874/17/1 875/5/1 876/2/1
f 877/10/1 878/17/1 879/5/1 880/2/1
f 881/10/1 882/17/1 883/5/1 884/2/1
f 885/10/1 886/17/1 887/5/1 888/2/1
f 889/10/1 890/17/1 891/5/1 892/2/1
f 893/10/1 894/17/1 895/5/1 896/2/1
f 897/10/1 898/17/1 899/5/1 900/2/1
f 901/10/1 902/17/1 903/5/1 904/2/1
f 905/10/1 906/17/1 907/5/1 908/2/1
f 909/10/1 910/17/1 911/5/1 912/2/1
f 913/10/1 914/17/1 915/5/1 916/2/1
f 917/10/1 918/17/1 919/5/1 920/2/1
f 921/10/1 922/17/1 923/5/1 924/2/1
f 925/17/1 926/18/1 927/7/1 928/5/1

