# Tiled2Unity generated file. Do not modify by hand.
# Wavefront file for 'Grassland---Lanes_mesh_0007.obj'

# Vertices (Count = 528)
v 0 -32 0
v -32 -32 0
v -32 0 0
v 0 0 0
v -32 -32 0
v -64 -32 0
v -64 0 0
v -32 0 0
v -64 -32 0
v -96 -32 0
v -96 0 0
v -64 0 0
v -96 -32 0
v -128 -32 0
v -128 0 0
v -96 0 0
v -128 -32 0
v -160 -32 0
v -160 0 0
v -128 0 0
v -160 -32 0
v -192 -32 0
v -192 0 0
v -160 0 0
v -192 -32 0
v -224 -32 0
v -224 0 0
v -192 0 0
v -224 -32 0
v -256 -32 0
v -256 0 0
v -224 0 0
v -256 -32 0
v -288 -32 0
v -288 0 0
v -256 0 0
v -288 -32 0
v -320 -32 0
v -320 0 0
v -288 0 0
v -320 -32 0
v -352 -32 0
v -352 0 0
v -320 0 0
v -352 -32 0
v -384 -32 0
v -384 0 0
v -352 0 0
v -384 -32 0
v -416 -32 0
v -416 0 0
v -384 0 0
v -416 -32 0
v -448 -32 0
v -448 0 0
v -416 0 0
v -448 -32 0
v -480 -32 0
v -480 0 0
v -448 0 0
v -480 -32 0
v -512 -32 0
v -512 0 0
v -480 0 0
v -512 -32 0
v -544 -32 0
v -544 0 0
v -512 0 0
v -544 -32 0
v -576 -32 0
v -576 0 0
v -544 0 0
v -576 -32 0
v -608 -32 0
v -608 0 0
v -576 0 0
v -608 -32 0
v -640 -32 0
v -640 0 0
v -608 0 0
v -640 -32 0
v -672 -32 0
v -672 0 0
v -640 0 0
v -672 -32 0
v -704 -32 0
v -704 0 0
v -672 0 0
v -704 -32 0
v -736 -32 0
v -736 0 0
v -704 0 0
v -736 -32 0
v -768 -32 0
v -768 0 0
v -736 0 0
v -768 -32 0
v -800 -32 0
v -800 0 0
v -768 0 0
v -800 -32 0
v -832 -32 0
v -832 0 0
v -800 0 0
v -832 -32 0
v -864 -32 0
v -864 0 0
v -832 0 0
v -864 -32 0
v -896 -32 0
v -896 0 0
v -864 0 0
v -896 -32 0
v -928 -32 0
v -928 0 0
v -896 0 0
v -928 -32 0
v -960 -32 0
v -960 0 0
v -928 0 0
v -960 -32 0
v -992 -32 0
v -992 0 0
v -960 0 0
v -992 -32 0
v -1024 -32 0
v -1024 0 0
v -992 0 0
v -1024 -32 0
v -1056 -32 0
v -1056 0 0
v -1024 0 0
v -1056 -32 0
v -1088 -32 0
v -1088 0 0
v -1056 0 0
v -1088 -32 0
v -1120 -32 0
v -1120 0 0
v -1088 0 0
v -1120 -32 0
v -1152 -32 0
v -1152 0 0
v -1120 0 0
v -1152 -32 0
v -1184 -32 0
v -1184 0 0
v -1152 0 0
v -1184 -32 0
v -1216 -32 0
v -1216 0 0
v -1184 0 0
v -1216 -32 0
v -1248 -32 0
v -1248 0 0
v -1216 0 0
v -1248 -32 0
v -1280 -32 0
v -1280 0 0
v -1248 0 0
v -1280 -32 0
v -1312 -32 0
v -1312 0 0
v -1280 0 0
v -1312 -32 0
v -1344 -32 0
v -1344 0 0
v -1312 0 0
v -1344 -32 0
v -1376 -32 0
v -1376 0 0
v -1344 0 0
v 0 -64 0
v -32 -64 0
v -32 -32 0
v 0 -32 0
v -32 -64 0
v -64 -64 0
v -64 -32 0
v -32 -32 0
v -64 -64 0
v -96 -64 0
v -96 -32 0
v -64 -32 0
v -96 -64 0
v -128 -64 0
v -128 -32 0
v -96 -32 0
v -128 -64 0
v -160 -64 0
v -160 -32 0
v -128 -32 0
v -160 -64 0
v -192 -64 0
v -192 -32 0
v -160 -32 0
v -192 -64 0
v -224 -64 0
v -224 -32 0
v -192 -32 0
v -224 -64 0
v -256 -64 0
v -256 -32 0
v -224 -32 0
v -256 -64 0
v -288 -64 0
v -288 -32 0
v -256 -32 0
v -288 -64 0
v -320 -64 0
v -320 -32 0
v -288 -32 0
v -320 -64 0
v -352 -64 0
v -352 -32 0
v -320 -32 0
v -352 -64 0
v -384 -64 0
v -384 -32 0
v -352 -32 0
v -384 -64 0
v -416 -64 0
v -416 -32 0
v -384 -32 0
v -416 -64 0
v -448 -64 0
v -448 -32 0
v -416 -32 0
v -448 -64 0
v -480 -64 0
v -480 -32 0
v -448 -32 0
v -480 -64 0
v -512 -64 0
v -512 -32 0
v -480 -32 0
v -512 -64 0
v -544 -64 0
v -544 -32 0
v -512 -32 0
v -544 -64 0
v -576 -64 0
v -576 -32 0
v -544 -32 0
v -576 -64 0
v -608 -64 0
v -608 -32 0
v -576 -32 0
v -608 -64 0
v -640 -64 0
v -640 -32 0
v -608 -32 0
v -640 -64 0
v -672 -64 0
v -672 -32 0
v -640 -32 0
v -672 -64 0
v -704 -64 0
v -704 -32 0
v -672 -32 0
v -704 -64 0
v -736 -64 0
v -736 -32 0
v -704 -32 0
v -736 -64 0
v -768 -64 0
v -768 -32 0
v -736 -32 0
v -768 -64 0
v -800 -64 0
v -800 -32 0
v -768 -32 0
v -800 -64 0
v -832 -64 0
v -832 -32 0
v -800 -32 0
v -832 -64 0
v -864 -64 0
v -864 -32 0
v -832 -32 0
v -864 -64 0
v -896 -64 0
v -896 -32 0
v -864 -32 0
v -896 -64 0
v -928 -64 0
v -928 -32 0
v -896 -32 0
v -928 -64 0
v -960 -64 0
v -960 -32 0
v -928 -32 0
v -960 -64 0
v -992 -64 0
v -992 -32 0
v -960 -32 0
v -992 -64 0
v -1024 -64 0
v -1024 -32 0
v -992 -32 0
v -1024 -64 0
v -1056 -64 0
v -1056 -32 0
v -1024 -32 0
v -1056 -64 0
v -1088 -64 0
v -1088 -32 0
v -1056 -32 0
v -1088 -64 0
v -1120 -64 0
v -1120 -32 0
v -1088 -32 0
v -1120 -64 0
v -1152 -64 0
v -1152 -32 0
v -1120 -32 0
v -1152 -64 0
v -1184 -64 0
v -1184 -32 0
v -1152 -32 0
v -1184 -64 0
v -1216 -64 0
v -1216 -32 0
v -1184 -32 0
v -1216 -64 0
v -1248 -64 0
v -1248 -32 0
v -1216 -32 0
v -1248 -64 0
v -1280 -64 0
v -1280 -32 0
v -1248 -32 0
v -128 -96 0
v -160 -96 0
v -160 -64 0
v -128 -64 0
v -160 -96 0
v -192 -96 0
v -192 -64 0
v -160 -64 0
v -192 -96 0
v -224 -96 0
v -224 -64 0
v -192 -64 0
v -224 -96 0
v -256 -96 0
v -256 -64 0
v -224 -64 0
v -256 -96 0
v -288 -96 0
v -288 -64 0
v -256 -64 0
v -288 -96 0
v -320 -96 0
v -320 -64 0
v -288 -64 0
v -320 -96 0
v -352 -96 0
v -352 -64 0
v -320 -64 0
v -352 -96 0
v -384 -96 0
v -384 -64 0
v -352 -64 0
v -384 -96 0
v -416 -96 0
v -416 -64 0
v -384 -64 0
v -416 -96 0
v -448 -96 0
v -448 -64 0
v -416 -64 0
v -448 -96 0
v -480 -96 0
v -480 -64 0
v -448 -64 0
v -480 -96 0
v -512 -96 0
v -512 -64 0
v -480 -64 0
v -512 -96 0
v -544 -96 0
v -544 -64 0
v -512 -64 0
v -544 -96 0
v -576 -96 0
v -576 -64 0
v -544 -64 0
v -576 -96 0
v -608 -96 0
v -608 -64 0
v -576 -64 0
v -608 -96 0
v -640 -96 0
v -640 -64 0
v -608 -64 0
v -640 -96 0
v -672 -96 0
v -672 -64 0
v -640 -64 0
v -672 -96 0
v -704 -96 0
v -704 -64 0
v -672 -64 0
v -704 -96 0
v -736 -96 0
v -736 -64 0
v -704 -64 0
v -736 -96 0
v -768 -96 0
v -768 -64 0
v -736 -64 0
v -768 -96 0
v -800 -96 0
v -800 -64 0
v -768 -64 0
v -800 -96 0
v -832 -96 0
v -832 -64 0
v -800 -64 0
v -832 -96 0
v -864 -96 0
v -864 -64 0
v -832 -64 0
v -864 -96 0
v -896 -96 0
v -896 -64 0
v -864 -64 0
v -896 -96 0
v -928 -96 0
v -928 -64 0
v -896 -64 0
v -928 -96 0
v -960 -96 0
v -960 -64 0
v -928 -64 0
v -960 -96 0
v -992 -96 0
v -992 -64 0
v -960 -64 0
v -992 -96 0
v -1024 -96 0
v -1024 -64 0
v -992 -64 0
v -1024 -96 0
v -1056 -96 0
v -1056 -64 0
v -1024 -64 0
v -1056 -96 0
v -1088 -96 0
v -1088 -64 0
v -1056 -64 0
v -1088 -96 0
v -1120 -96 0
v -1120 -64 0
v -1088 -64 0
v -1120 -96 0
v -1152 -96 0
v -1152 -64 0
v -1120 -64 0
v -1152 -96 0
v -1184 -96 0
v -1184 -64 0
v -1152 -64 0
v -1184 -96 0
v -1216 -96 0
v -1216 -64 0
v -1184 -64 0
v -704 -128 0
v -736 -128 0
v -736 -96 0
v -704 -96 0
v -736 -128 0
v -768 -128 0
v -768 -96 0
v -736 -96 0
v -768 -128 0
v -800 -128 0
v -800 -96 0
v -768 -96 0
v -800 -128 0
v -832 -128 0
v -832 -96 0
v -800 -96 0
v -832 -128 0
v -864 -128 0
v -864 -96 0
v -832 -96 0
v -864 -128 0
v -896 -128 0
v -896 -96 0
v -864 -96 0
v -896 -128 0
v -928 -128 0
v -928 -96 0
v -896 -96 0
v -928 -128 0
v -960 -128 0
v -960 -96 0
v -928 -96 0
v -960 -128 0
v -992 -128 0
v -992 -96 0
v -960 -96 0
v -992 -128 0
v -1024 -128 0
v -1024 -96 0
v -992 -96 0
v -1024 -128 0
v -1056 -128 0
v -1056 -96 0
v -1024 -96 0
v -1056 -128 0
v -1088 -128 0
v -1088 -96 0
v -1056 -96 0
v -1088 -128 0
v -1120 -128 0
v -1120 -96 0
v -1088 -96 0
v -1120 -128 0
v -1152 -128 0
v -1152 -96 0
v -1120 -96 0
v -1152 -128 0
v -1184 -128 0
v -1184 -96 0
v -1152 -96 0

# Texture cooridinates (Count = 16)
vt 0.7222222 0.5854923
vt 0.7777778 0.5854923
vt 0.7777778 0.6683938
vt 0.7222222 0.6683938
vt 0.7222222 0.8341969
vt 0.7777778 0.8341969
vt 0.7777778 0.9170985
vt 0.7222222 0.9170985
vt 0.7222222 0.5025907
vt 0.7777778 0.5025907
vt 0.8333333 0.5025907
vt 0.8333333 0.5854923
vt 0.8333333 0.8341969
vt 0.8333333 0.9170985
vt 0.6666667 0.5025907
vt 0.6666667 0.5854923

# Normal
vn 0 0 -1

# Mesh description
g Grassland---Lanes_mesh_0007

# Faces
f 1/1/1 2/2/1 3/3/1 4/4/1
f 5/1/1 6/2/1 7/3/1 8/4/1
f 9/1/1 10/2/1 11/3/1 12/4/1
f 13/1/1 14/2/1 15/3/1 16/4/1
f 17/1/1 18/2/1 19/3/1 20/4/1
f 21/1/1 22/2/1 23/3/1 24/4/1
f 25/1/1 26/2/1 27/3/1 28/4/1
f 29/1/1 30/2/1 31/3/1 32/4/1
f 33/1/1 34/2/1 35/3/1 36/4/1
f 37/1/1 38/2/1 39/3/1 40/4/1
f 41/1/1 42/2/1 43/3/1 44/4/1
f 45/1/1 46/2/1 47/3/1 48/4/1
f 49/1/1 50/2/1 51/3/1 52/4/1
f 53/1/1 54/2/1 55/3/1 56/4/1
f 57/1/1 58/2/1 59/3/1 60/4/1
f 61/1/1 62/2/1 63/3/1 64/4/1
f 65/1/1 66/2/1 67/3/1 68/4/1
f 69/1/1 70/2/1 71/3/1 72/4/1
f 73/1/1 74/2/1 75/3/1 76/4/1
f 77/1/1 78/2/1 79/3/1 80/4/1
f 81/1/1 82/2/1 83/3/1 84/4/1
f 85/1/1 86/2/1 87/3/1 88/4/1
f 89/1/1 90/2/1 91/3/1 92/4/1
f 93/1/1 94/2/1 95/3/1 96/4/1
f 97/1/1 98/2/1 99/3/1 100/4/1
f 101/1/1 102/2/1 103/3/1 104/4/1
f 105/1/1 106/2/1 107/3/1 108/4/1
f 109/1/1 110/2/1 111/3/1 112/4/1
f 113/1/1 114/2/1 115/3/1 116/4/1
f 117/1/1 118/2/1 119/3/1 120/4/1
f 121/1/1 122/2/1 123/3/1 124/4/1
f 125/1/1 126/2/1 127/3/1 128/4/1
f 129/1/1 130/2/1 131/3/1 132/4/1
f 133/1/1 134/2/1 135/3/1 136/4/1
f 137/1/1 138/2/1 139/3/1 140/4/1
f 141/1/1 142/2/1 143/3/1 144/4/1
f 145/1/1 146/2/1 147/3/1 148/4/1
f 149/1/1 150/2/1 151/3/1 152/4/1
f 153/1/1 154/2/1 155/3/1 156/4/1
f 157/5/1 158/6/1 159/7/1 160/8/1
f 161/9/1 162/10/1 163/2/1 164/1/1
f 165/9/1 166/10/1 167/2/1 168/1/1
f 169/10/1 170/11/1 171/12/1 172/2/1
f 173/9/1 174/10/1 175/2/1 176/1/1
f 177/9/1 178/10/1 179/2/1 180/1/1
f 181/9/1 182/10/1 183/2/1 184/1/1
f 185/9/1 186/10/1 187/2/1 188/1/1
f 189/6/1 190/13/1 191/14/1 192/7/1
f 193/1/1 194/2/1 195/3/1 196/4/1
f 197/1/1 198/2/1 199/3/1 200/4/1
f 201/1/1 202/2/1 203/3/1 204/4/1
f 205/1/1 206/2/1 207/3/1 208/4/1
f 209/1/1 210/2/1 211/3/1 212/4/1
f 213/1/1 214/2/1 215/3/1 216/4/1
f 217/1/1 218/2/1 219/3/1 220/4/1
f 221/1/1 222/2/1 223/3/1 224/4/1
f 225/1/1 226/2/1 227/3/1 228/4/1
f 229/1/1 230/2/1 231/3/1 232/4/1
f 233/1/1 234/2/1 235/3/1 236/4/1
f 237/1/1 238/2/1 239/3/1 240/4/1
f 241/1/1 242/2/1 243/3/1 244/4/1
f 245/1/1 246/2/1 247/3/1 248/4/1
f 249/1/1 250/2/1 251/3/1 252/4/1
f 253/1/1 254/2/1 255/3/1 256/4/1
f 257/1/1 258/2/1 259/3/1 260/4/1
f 261/1/1 262/2/1 263/3/1 264/4/1
f 265/1/1 266/2/1 267/3/1 268/4/1
f 269/1/1 270/2/1 271/3/1 272/4/1
f 273/1/1 274/2/1 275/3/1 276/4/1
f 277/1/1 278/2/1 279/3/1 280/4/1
f 281/1/1 282/2/1 283/3/1 284/4/1
f 285/1/1 286/2/1 287/3/1 288/4/1
f 289/1/1 290/2/1 291/3/1 292/4/1
f 293/1/1 294/2/1 295/3/1 296/4/1
f 297/1/1 298/2/1 299/3/1 300/4/1
f 301/1/1 302/2/1 303/3/1 304/4/1
f 305/1/1 306/2/1 307/3/1 308/4/1
f 309/1/1 310/2/1 311/3/1 312/4/1
f 313/1/1 314/2/1 315/3/1 316/4/1
f 317/1/1 318/2/1 319/3/1 320/4/1
f 321/5/1 322/6/1 323/7/1 324/8/1
f 325/9/1 326/10/1 327/2/1 328/1/1
f 329/10/1 330/11/1 331/12/1 332/2/1
f 333/15/1 334/9/1 335/1/1 336/16/1
f 337/9/1 338/10/1 339/2/1 340/1/1
f 341/9/1 342/10/1 343/2/1 344/1/1
f 345/9/1 346/10/1 347/2/1 348/1/1
f 349/9/1 350/10/1 351/2/1 352/1/1
f 353/9/1 354/10/1 355/2/1 356/1/1
f 357/9/1 358/10/1 359/2/1 360/1/1
f 361/9/1 362/10/1 363/2/1 364/1/1
f 365/9/1 366/10/1 367/2/1 368/1/1
f 369/9/1 370/10/1 371/2/1 372/1/1
f 373/9/1 374/10/1 375/2/1 376/1/1
f 377/9/1 378/10/1 379/2/1 380/1/1
f 381/9/1 382/10/1 383/2/1 384/1/1
f 385/9/1 386/10/1 387/2/1 388/1/1
f 389/9/1 390/10/1 391/2/1 392/1/1
f 393/9/1 394/10/1 395/2/1 396/1/1
f 397/9/1 398/10/1 399/2/1 400/1/1
f 401/9/1 402/10/1 403/2/1 404/1/1
f 405/6/1 406/13/1 407/14/1 408/7/1
f 409/1/1 410/2/1 411/3/1 412/4/1
f 413/1/1 414/2/1 415/3/1 416/4/1
f 417/1/1 418/2/1 419/3/1 420/4/1
f 421/1/1 422/2/1 423/3/1 424/4/1
f 425/1/1 426/2/1 427/3/1 428/4/1
f 429/1/1 430/2/1 431/3/1 432/4/1
f 433/1/1 434/2/1 435/3/1 436/4/1
f 437/1/1 438/2/1 439/3/1 440/4/1
f 441/1/1 442/2/1 443/3/1 444/4/1
f 445/1/1 446/2/1 447/3/1 448/4/1
f 449/1/1 450/2/1 451/3/1 452/4/1
f 453/1/1 454/2/1 455/3/1 456/4/1
f 457/1/1 458/2/1 459/3/1 460/4/1
f 461/5/1 462/6/1 463/7/1 464/8/1
f 465/10/1 466/11/1 467/12/1 468/2/1
f 469/15/1 470/9/1 471/1/1 472/16/1
f 473/9/1 474/10/1 475/2/1 476/1/1
f 477/9/1 478/10/1 479/2/1 480/1/1
f 481/9/1 482/10/1 483/2/1 484/1/1
f 485/9/1 486/10/1 487/2/1 488/1/1
f 489/9/1 490/10/1 491/2/1 492/1/1
f 493/9/1 494/10/1 495/2/1 496/1/1
f 497/9/1 498/10/1 499/2/1 500/1/1
f 501/9/1 502/10/1 503/2/1 504/1/1
f 505/9/1 506/10/1 507/2/1 508/1/1
f 509/9/1 510/10/1 511/2/1 512/1/1
f 513/9/1 514/10/1 515/2/1 516/1/1
f 517/9/1 518/10/1 519/2/1 520/1/1
f 521/9/1 522/10/1 523/2/1 524/1/1
f 525/10/1 526/11/1 527/12/1 528/2/1

